<svg width="21" height="17" viewBox="0 0 21 17" fill="none" xmlns="http://www.w3.org/2000/svg">
<path d="M2.55627 0.525391L4.05627 1.52539C4.43127 1.81706 4.50419 2.16081 4.27502 2.55664C3.98336 2.93164 3.63961 3.00456 3.24377 2.77539L1.74377 1.77539C1.36877 1.48372 1.29586 1.13997 1.52502 0.744141C1.81669 0.389975 2.16044 0.317058 2.55627 0.525391ZM19.0563 1.77539L17.5563 2.77539C17.1604 2.98372 16.8167 2.91081 16.525 2.55664C16.3167 2.16081 16.3896 1.81706 16.7438 1.52539L18.2438 0.525391C18.6396 0.317058 18.9834 0.389975 19.275 0.744141C19.4834 1.13997 19.4104 1.48372 19.0563 1.77539ZM1.15002 5.40039H3.15002C3.60836 5.44206 3.85836 5.69206 3.90002 6.15039C3.85836 6.60872 3.60836 6.85872 3.15002 6.90039H1.15002C0.691691 6.85872 0.441691 6.60872 0.400024 6.15039C0.441691 5.69206 0.691691 5.44206 1.15002 5.40039ZM17.65 5.40039H19.65C20.1084 5.44206 20.3584 5.69206 20.4 6.15039C20.3584 6.60872 20.1084 6.85872 19.65 6.90039H17.65C17.1917 6.85872 16.9417 6.60872 16.9 6.15039C16.9417 5.69206 17.1917 5.44206 17.65 5.40039ZM4.05627 10.7754L2.55627 11.7754C2.16044 11.9837 1.81669 11.9108 1.52502 11.5566C1.31669 11.1608 1.38961 10.8171 1.74377 10.5254L3.24377 9.52539C3.63961 9.31706 3.98336 9.38997 4.27502 9.74414C4.48336 10.14 4.41044 10.4837 4.05627 10.7754ZM17.5563 9.52539L19.0563 10.5254C19.4313 10.8171 19.5042 11.1608 19.275 11.5566C18.9834 11.9316 18.6396 12.0046 18.2438 11.7754L16.7438 10.7754C16.3688 10.4837 16.2959 10.14 16.525 9.74414C16.8167 9.38997 17.1604 9.31706 17.5563 9.52539ZM14.4 5.90039C14.3792 4.77539 13.9938 3.82747 13.2438 3.05664C12.4729 2.30664 11.525 1.92122 10.4 1.90039C9.27502 1.92122 8.32711 2.30664 7.55627 3.05664C6.80627 3.82747 6.42086 4.77539 6.40002 5.90039C6.42086 6.75456 6.66044 7.51497 7.11877 8.18164C7.24377 8.34831 7.37919 8.53581 7.52502 8.74414C7.96252 9.30664 8.36877 9.92122 8.74377 10.5879C9.05627 11.1921 9.25419 11.7962 9.33752 12.4004H7.80627C7.74377 12.0254 7.61877 11.6608 7.43127 11.3066C7.11877 10.765 6.76461 10.2337 6.36877 9.71289C6.20211 9.48372 6.03544 9.25456 5.86877 9.02539C5.24377 8.12956 4.92086 7.08789 4.90002 5.90039C4.94169 4.33789 5.48336 3.04622 6.52502 2.02539C7.54586 0.983725 8.83752 0.442058 10.4 0.400391C11.9625 0.442058 13.2542 0.983725 14.275 2.02539C15.3167 3.04622 15.8584 4.33789 15.9 5.90039C15.8792 7.08789 15.5563 8.12956 14.9313 9.02539C14.7646 9.25456 14.5979 9.48372 14.4313 9.71289C14.0354 10.2337 13.6813 10.765 13.3688 11.3066C13.1813 11.6608 13.0563 12.0254 12.9938 12.4004H11.4625C11.5459 11.7962 11.7438 11.1921 12.0563 10.5879C12.4521 9.92122 12.8688 9.30664 13.3063 8.74414C13.4521 8.53581 13.5771 8.34831 13.6813 8.18164C14.1396 7.51497 14.3792 6.75456 14.4 5.90039ZM8.90002 5.90039C8.87919 6.21289 8.71252 6.37956 8.40002 6.40039C8.08752 6.37956 7.92086 6.21289 7.90002 5.90039C7.92086 5.19206 8.16044 4.59831 8.61877 4.11914C9.09794 3.66081 9.69169 3.42122 10.4 3.40039C10.7125 3.42122 10.8792 3.58789 10.9 3.90039C10.8792 4.21289 10.7125 4.37956 10.4 4.40039C9.98336 4.42122 9.62919 4.56706 9.33752 4.83789C9.06669 5.12956 8.92086 5.48372 8.90002 5.90039ZM12.9 13.9004C12.8792 14.6087 12.6396 15.2025 12.1813 15.6816C11.7021 16.14 11.1084 16.3796 10.4 16.4004C9.69169 16.3796 9.09794 16.14 8.61877 15.6816C8.16044 15.2025 7.92086 14.6087 7.90002 13.9004V13.4004H12.9V13.9004Z" fill="white"/>
</svg>
