<svg width="28" height="32" viewBox="0 0 28 32" fill="none" xmlns="http://www.w3.org/2000/svg">
<path d="M25 0C26.5625 0 28 1.4375 28 3V29C28 30.625 26.5625 32 25 32H3C1.375 32 0 30.625 0 29V3C0 1.4375 1.375 0 3 0H25ZM8 27.25V24.8125C8 24.4375 7.5625 24 7.1875 24H4.75C4.375 24 4 24.4375 4 24.8125V27.25C4 27.625 4.375 28 4.75 28H7.1875C7.5625 28 8 27.625 8 27.25ZM8 19.25V16.8125C8 16.4375 7.5625 16 7.1875 16H4.75C4.375 16 4 16.4375 4 16.8125V19.25C4 19.625 4.375 20 4.75 20H7.1875C7.5625 20 8 19.625 8 19.25ZM16 27.25V24.8125C16 24.4375 15.5625 24 15.1875 24H12.75C12.375 24 12 24.4375 12 24.8125V27.25C12 27.625 12.375 28 12.75 28H15.1875C15.5625 28 16 27.625 16 27.25ZM16 19.25V16.8125C16 16.4375 15.5625 16 15.1875 16H12.75C12.375 16 12 16.4375 12 16.8125V19.25C12 19.625 12.375 20 12.75 20H15.1875C15.5625 20 16 19.625 16 19.25ZM24 27.25V16.8125C24 16.4375 23.5625 16 23.1875 16H20.75C20.375 16 20 16.4375 20 16.8125V27.25C20 27.625 20.375 28 20.75 28H23.1875C23.5625 28 24 27.625 24 27.25ZM24 11.25V4.8125C24 4.4375 23.5625 4 23.1875 4H4.75C4.375 4 4 4.4375 4 4.8125V11.25C4 11.625 4.375 12 4.75 12H23.1875C23.5625 12 24 11.625 24 11.25Z" fill="#D8D8D8"/>
</svg>
