<svg width="16" height="18" viewBox="0 0 16 18" fill="none" xmlns="http://www.w3.org/2000/svg">
<path d="M11 9C11 9.6875 10.9688 10.3542 10.9062 11H5.09375C5.03125 10.3542 5 9.6875 5 9C5 8.3125 5.03125 7.64583 5.09375 7H10.9062C10.9688 7.64583 11 8.3125 11 9ZM11.9062 7H15.75C15.9167 7.64583 16 8.3125 16 9C16 9.6875 15.9167 10.3542 15.75 11H11.9062C11.9688 10.3542 12 9.6875 12 9C12 8.3125 11.9688 7.64583 11.9062 7ZM15.4062 6H11.7812C11.4479 3.95833 10.8646 2.375 10.0312 1.25C11.2812 1.60417 12.375 2.1875 13.3125 3C14.2292 3.83333 14.9271 4.83333 15.4062 6ZM10.75 6H5.25C5.4375 4.85417 5.71875 3.86458 6.09375 3.03125C6.42708 2.30208 6.77083 1.77083 7.125 1.4375C7.47917 1.125 7.77083 0.979167 8 1C8.22917 0.979167 8.52083 1.125 8.875 1.4375C9.22917 1.77083 9.57292 2.30208 9.90625 3.03125C10.2812 3.86458 10.5625 4.85417 10.75 6ZM4.21875 6H0.59375C1.07292 4.83333 1.77083 3.83333 2.6875 3C3.625 2.1875 4.71875 1.60417 5.96875 1.25C5.13542 2.375 4.55208 3.95833 4.21875 6ZM0.25 7H4.09375C4.03125 7.64583 4 8.3125 4 9C4 9.6875 4.03125 10.3542 4.09375 11H0.25C0.0833333 10.3542 0 9.6875 0 9C0 8.3125 0.0833333 7.64583 0.25 7ZM6.09375 14.9688C5.71875 14.1354 5.4375 13.1458 5.25 12H10.75C10.5625 13.1458 10.2812 14.1354 9.90625 14.9688C9.57292 15.6979 9.22917 16.2292 8.875 16.5625C8.52083 16.875 8.22917 17.0208 8 17C7.77083 17.0208 7.47917 16.875 7.125 16.5625C6.77083 16.2292 6.42708 15.6979 6.09375 14.9688ZM4.21875 12C4.55208 14.0417 5.13542 15.625 5.96875 16.75C4.71875 16.3958 3.625 15.8125 2.6875 15C1.77083 14.1667 1.07292 13.1667 0.59375 12H4.21875ZM15.4062 12C14.9271 13.1667 14.2292 14.1667 13.3125 15C12.375 15.8125 11.2917 16.3958 10.0625 16.75C10.875 15.625 11.4479 14.0417 11.7812 12H15.4062Z" fill="white"/>
</svg>
