<?xml version="1.0" encoding="utf-8"?>
<!-- Generator: Adobe Illustrator 26.4.1, SVG Export Plug-In . SVG Version: 6.00 Build 0)  -->
<svg version="1.1" id="Layer_1" xmlns="http://www.w3.org/2000/svg" xmlns:xlink="http://www.w3.org/1999/xlink" x="0px" y="0px"
	 viewBox="0 0 40 40" style="enable-background:new 0 0 40 40;" xml:space="preserve">
<style type="text/css">
	.st0{fill:#FED723;}
	.st1{fill:#FFFFFF;}
</style>
<circle class="st0" cx="20" cy="20" r="20"/>
<path class="st1" d="M12.2,13.6l1.5,0.8c0.4,0.2,0.4,0.5,0.2,0.8c-0.3,0.3-0.6,0.4-1,0.2l-1.5-0.8c-0.4-0.2-0.4-0.5-0.2-0.8
	C11.4,13.5,11.8,13.4,12.2,13.6z M28.7,14.6l-1.5,0.8c-0.4,0.2-0.7,0.1-1-0.2c-0.2-0.3-0.1-0.6,0.2-0.8l1.5-0.8
	c0.4-0.2,0.7-0.1,1,0.2C29.1,14.1,29,14.4,28.7,14.6z M10.8,17.6h2c0.5,0,0.7,0.2,0.8,0.6c0,0.4-0.3,0.6-0.8,0.6h-2
	c-0.5,0-0.7-0.2-0.7-0.6C10,17.8,10.3,17.6,10.8,17.6z M27.2,17.6h2c0.5,0,0.7,0.2,0.8,0.6c0,0.4-0.3,0.6-0.8,0.6h-2
	c-0.5,0-0.7-0.2-0.8-0.6C26.5,17.8,26.8,17.6,27.2,17.6z M13.7,21.9l-1.5,0.8c-0.4,0.2-0.7,0.1-1-0.2c-0.2-0.3-0.1-0.6,0.2-0.8
	l1.5-0.8c0.4-0.2,0.7-0.1,1,0.2C14.1,21.4,14,21.7,13.7,21.9z M27.2,20.9l1.5,0.8c0.4,0.2,0.4,0.5,0.2,0.8c-0.3,0.3-0.6,0.4-1,0.2
	l-1.5-0.8c-0.4-0.2-0.4-0.5-0.2-0.8C26.4,20.8,26.8,20.7,27.2,20.9z M24,18c0-0.9-0.4-1.7-1.2-2.3c-0.8-0.6-1.7-0.9-2.8-0.9
	c-1.1,0-2.1,0.3-2.8,0.9C16.4,16.3,16,17.1,16,18c0,0.7,0.3,1.3,0.7,1.9c0.1,0.1,0.3,0.3,0.4,0.5c0.4,0.5,0.8,1,1.2,1.5
	c0.3,0.5,0.5,1,0.6,1.5h-1.5c-0.1-0.3-0.2-0.6-0.4-0.9c-0.3-0.4-0.7-0.9-1.1-1.3c-0.2-0.2-0.3-0.4-0.5-0.6c-0.6-0.7-0.9-1.6-1-2.5
	c0-1.3,0.6-2.3,1.6-3.1c1-0.8,2.3-1.3,3.9-1.3c1.6,0,2.9,0.5,3.9,1.3c1,0.8,1.6,1.9,1.6,3.1c0,1-0.3,1.8-1,2.5
	c-0.2,0.2-0.3,0.4-0.5,0.6c-0.4,0.4-0.8,0.9-1.1,1.3c-0.2,0.3-0.3,0.6-0.4,0.9h-1.5c0.1-0.5,0.3-1,0.6-1.5c0.4-0.5,0.8-1,1.2-1.5
	c0.1-0.2,0.3-0.3,0.4-0.5C23.7,19.3,24,18.7,24,18z M18.5,18c0,0.3-0.2,0.4-0.5,0.4c-0.3,0-0.5-0.2-0.5-0.4c0-0.6,0.3-1.1,0.7-1.4
	c0.5-0.4,1.1-0.6,1.8-0.6c0.3,0,0.5,0.2,0.5,0.4c0,0.3-0.2,0.4-0.5,0.4c-0.4,0-0.8,0.1-1.1,0.4C18.7,17.3,18.5,17.6,18.5,18z
	 M22.5,24.5c0,0.6-0.3,1.1-0.7,1.4c-0.5,0.4-1.1,0.6-1.8,0.6c-0.7,0-1.3-0.2-1.8-0.6c-0.5-0.4-0.7-0.9-0.7-1.4v-0.4h5V24.5z"/>
</svg>
