<svg width="40" height="78" viewBox="0 0 40 78" fill="none" xmlns="http://www.w3.org/2000/svg">
<path d="M4.3125 26.25L7.3125 28.25C8.02083 28.8333 8.16667 29.5208 7.75 30.3125C7.16667 31.0208 6.47917 31.1667 5.6875 30.75L2.6875 28.75C1.97917 28.1667 1.83333 27.4792 2.25 26.6875C2.83333 25.9792 3.52083 25.8333 4.3125 26.25ZM37.3125 28.75L34.3125 30.75C33.5208 31.2083 32.8333 31.0625 32.25 30.3125C31.7917 29.5208 31.9375 28.8333 32.6875 28.25L35.6875 26.25C36.4792 25.7917 37.1667 25.9375 37.75 26.6875C38.2083 27.4792 38.0625 28.1667 37.3125 28.75ZM1.5 36H5.5C6.41667 36.0833 6.91667 36.5833 7 37.5C6.91667 38.4167 6.41667 38.9167 5.5 39H1.5C0.583333 38.9167 0.0833333 38.4167 0 37.5C0.0833333 36.5833 0.583333 36.0833 1.5 36ZM34.5 36H38.5C39.4167 36.0833 39.9167 36.5833 40 37.5C39.9167 38.4167 39.4167 38.9167 38.5 39H34.5C33.5833 38.9167 33.0833 38.4167 33 37.5C33.0833 36.5833 33.5833 36.0833 34.5 36ZM7.3125 46.75L4.3125 48.75C3.52083 49.2083 2.83333 49.0625 2.25 48.3125C1.79167 47.5208 1.9375 46.8333 2.6875 46.25L5.6875 44.25C6.47917 43.7917 7.16667 43.9375 7.75 44.6875C8.20833 45.4792 8.0625 46.1667 7.3125 46.75ZM34.3125 44.25L37.3125 46.25C38.0208 46.8333 38.1667 47.5208 37.75 48.3125C37.1667 49.0208 36.4792 49.1667 35.6875 48.75L32.6875 46.75C31.9792 46.1667 31.8333 45.4792 32.25 44.6875C32.8333 43.9792 33.5208 43.8333 34.3125 44.25ZM28.0625 44.625C26.7292 46.25 25.7083 48.0417 25 50H15C14.2917 48.0833 13.2708 46.3125 11.9375 44.6875C11.9375 44.6458 11.9375 44.625 11.9375 44.625C11.6042 44.1667 11.2708 43.7083 10.9375 43.25C9.6875 41.4583 9.04167 39.375 9 37C9.08333 33.875 10.1667 31.2917 12.25 29.25C14.2917 27.1667 16.875 26.0833 20 26C23.125 26.0833 25.7083 27.1667 27.75 29.25C29.8333 31.2917 30.9167 33.875 31 37C30.9583 39.375 30.3125 41.4583 29.0625 43.25C28.7292 43.7083 28.3958 44.1458 28.0625 44.5625C28.0625 44.6042 28.0625 44.625 28.0625 44.625ZM25 53C24.9583 54.4167 24.4792 55.6042 23.5625 56.5625C22.6042 57.4792 21.4167 57.9583 20 58C18.5833 57.9583 17.3958 57.4792 16.4375 56.5625C15.5208 55.6042 15.0417 54.4167 15 53V52H25V53ZM20 32C20.625 31.9583 20.9583 31.625 21 31C20.9583 30.375 20.625 30.0417 20 30C18 30.0417 16.3542 30.7292 15.0625 32.0625C13.7292 33.3542 13.0417 35 13 37C13.0417 37.625 13.375 37.9583 14 38C14.625 37.9583 14.9583 37.625 15 37C15.0417 35.5833 15.5208 34.3958 16.4375 33.4375C17.3958 32.5208 18.5833 32.0417 20 32Z" fill="#859CFF"/>
<path d="M9.2 75.04C8.8 75.04 8.58 74.81 8.58 74.37V69.16C8.58 68.71 8.8 68.49 9.2 68.49H9.41C9.84 68.49 10.06 68.71 10.06 69.16V71.13H12.85V69.16C12.85 68.71 13.06 68.49 13.46 68.49H13.68C14.1 68.49 14.32 68.71 14.32 69.16V74.37C14.32 74.81 14.1 75.04 13.68 75.04H13.46C13.06 75.04 12.85 74.81 12.85 74.37V72.38H10.06V74.37C10.06 74.81 9.84 75.04 9.41 75.04H9.2ZM15.3843 68.62C15.3843 68.17 15.6843 67.89 16.1743 67.89C16.6643 67.89 16.9643 68.17 16.9643 68.62C16.9643 69.07 16.6743 69.35 16.1743 69.35C15.6943 69.35 15.3843 69.07 15.3843 68.62ZM15.4643 74.37V70.75C15.4643 70.24 15.7343 70.07 16.0943 70.07H16.2443C16.6143 70.07 16.8743 70.23 16.8743 70.75V74.37C16.8743 74.88 16.6143 75.04 16.2443 75.04H16.1043C15.7243 75.04 15.4643 74.89 15.4643 74.37ZM20.9436 70.01C22.2136 70.01 22.7536 70.91 22.7536 72.02V74.37C22.7536 74.88 22.4836 75.04 22.1236 75.04H21.9736C21.6036 75.04 21.3436 74.89 21.3436 74.37V72.24C21.3436 71.59 21.0136 71.19 20.4436 71.19C19.9536 71.19 19.5736 71.45 19.3736 71.83V74.37C19.3736 74.88 19.1136 75.04 18.7536 75.04H18.6036C18.2236 75.04 17.9636 74.89 17.9636 74.37V70.23C17.9636 70.18 18.2136 70.07 18.4936 70.07C18.8736 70.07 19.2536 70.26 19.3336 70.89C19.6836 70.37 20.1936 70.01 20.9436 70.01ZM25.7644 75.14C24.6944 75.14 24.1944 74.57 24.1944 73.46V71.22H23.9444C23.5444 71.22 23.3644 71.04 23.3644 70.72V70.64C23.3644 70.31 23.5444 70.12 23.9344 70.12H24.1944V69.5C24.1944 69.04 24.4244 68.82 24.8244 68.82H24.9544C25.3244 68.82 25.5744 68.98 25.5744 69.5V70.12H26.4244C26.8244 70.12 26.9944 70.29 26.9944 70.61V70.7C26.9944 71.04 26.8144 71.22 26.4144 71.22H25.5544V73.3C25.5544 73.78 25.7044 74.02 26.0944 74.02C26.3744 74.02 26.5744 73.88 26.7044 73.69C26.7544 73.67 27.0544 73.87 27.0544 74.24C27.0544 74.45 26.9744 74.63 26.8144 74.78C26.5944 75 26.2344 75.14 25.7644 75.14ZM27.8685 74.74C27.5885 74.55 27.4385 74.31 27.4385 74.04C27.4385 73.68 27.8285 73.45 27.8685 73.48C28.1985 73.85 28.7585 74.14 29.4785 74.14C30.0285 74.14 30.3285 73.95 30.3285 73.64C30.3285 73.26 29.9385 73.19 29.2885 73.05C28.6185 72.91 27.5785 72.69 27.5785 71.59C27.5785 70.64 28.3485 70.01 29.6085 70.01C30.5985 70.01 31.2085 70.28 31.4585 70.66C31.5385 70.78 31.5785 70.92 31.5785 71.06C31.5785 71.43 31.1485 71.68 31.1285 71.65C30.7985 71.27 30.2685 70.99 29.6985 70.99C29.1585 70.99 28.8685 71.19 28.8685 71.5C28.8685 71.85 29.2485 71.92 29.9085 72.07C30.5985 72.22 31.6985 72.44 31.6985 73.54C31.6985 74.52 30.9185 75.11 29.5485 75.11C28.7785 75.11 28.2185 74.96 27.8685 74.74Z" fill="#859CFF"/>
<path d="M0 1H40V-1H0V1Z" fill="#D8D8D8" mask="url(#path-1-inside-1_163_1063)"/>
</svg>
