<?xml version="1.0" encoding="utf-8"?>
<!-- Generator: Adobe Illustrator 26.4.1, SVG Export Plug-In . SVG Version: 6.00 Build 0)  -->
<svg version="1.1" id="Layer_1" xmlns="http://www.w3.org/2000/svg" xmlns:xlink="http://www.w3.org/1999/xlink" x="0px" y="0px"
	 viewBox="0 0 40 78" style="enable-background:new 0 0 40 78;" xml:space="preserve">
<style type="text/css">
	.st0{fill:#D8D8D8;}
	.st1{clip-path:url(#SVGID_00000176021996047787628650000007691677345392904833_);}
	.st2{clip-path:url(#SVGID_00000069376797229382869770000015635824271447295928_);fill:#D8D8D8;}
</style>
<path class="st0" d="M4.3,26.2l3,2c0.7,0.6,0.9,1.3,0.4,2.1c-0.6,0.7-1.3,0.9-2.1,0.4l-3-2c-0.7-0.6-0.9-1.3-0.4-2.1
	C2.8,26,3.5,25.8,4.3,26.2z M37.3,28.8l-3,2c-0.8,0.5-1.5,0.3-2.1-0.4c-0.5-0.8-0.3-1.5,0.4-2.1l3-2c0.8-0.5,1.5-0.3,2.1,0.4
	C38.2,27.5,38.1,28.2,37.3,28.8z M1.5,36h4c0.9,0.1,1.4,0.6,1.5,1.5c-0.1,0.9-0.6,1.4-1.5,1.5h-4c-0.9-0.1-1.4-0.6-1.5-1.5
	C0.1,36.6,0.6,36.1,1.5,36z M34.5,36h4c0.9,0.1,1.4,0.6,1.5,1.5c-0.1,0.9-0.6,1.4-1.5,1.5h-4c-0.9-0.1-1.4-0.6-1.5-1.5
	C33.1,36.6,33.6,36.1,34.5,36z M7.3,46.8l-3,2c-0.8,0.5-1.5,0.3-2.1-0.4c-0.5-0.8-0.3-1.5,0.4-2.1l3-2c0.8-0.5,1.5-0.3,2.1,0.4
	C8.2,45.5,8.1,46.2,7.3,46.8z M34.3,44.2l3,2c0.7,0.6,0.9,1.3,0.4,2.1c-0.6,0.7-1.3,0.9-2.1,0.4l-3-2c-0.7-0.6-0.9-1.3-0.4-2.1
	C32.8,44,33.5,43.8,34.3,44.2z M28.1,44.6C26.7,46.2,25.7,48,25,50H15c-0.7-1.9-1.7-3.7-3.1-5.3c0,0,0-0.1,0-0.1
	c-0.3-0.5-0.7-0.9-1-1.4C9.7,41.5,9,39.4,9,37c0.1-3.1,1.2-5.7,3.2-7.8c2-2.1,4.6-3.2,7.8-3.2c3.1,0.1,5.7,1.2,7.8,3.2
	c2.1,2,3.2,4.6,3.2,7.8c0,2.4-0.7,4.5-1.9,6.2C28.7,43.7,28.4,44.1,28.1,44.6C28.1,44.6,28.1,44.6,28.1,44.6z M25,53
	c0,1.4-0.5,2.6-1.4,3.6c-1,0.9-2.1,1.4-3.6,1.4c-1.4,0-2.6-0.5-3.6-1.4c-0.9-1-1.4-2.1-1.4-3.6v-1h10V53z M20,32c0.6,0,1-0.4,1-1
	c0-0.6-0.4-1-1-1c-2,0-3.6,0.7-4.9,2.1C13.7,33.4,13,35,13,37c0,0.6,0.4,1,1,1c0.6,0,1-0.4,1-1c0-1.4,0.5-2.6,1.4-3.6
	C17.4,32.5,18.6,32,20,32z"/>
<path class="st0" d="M9.2,75c-0.4,0-0.6-0.2-0.6-0.7v-5.2c0-0.5,0.2-0.7,0.6-0.7h0.2c0.4,0,0.7,0.2,0.7,0.7v2h2.8v-2
	c0-0.5,0.2-0.7,0.6-0.7h0.2c0.4,0,0.6,0.2,0.6,0.7v5.2c0,0.4-0.2,0.7-0.6,0.7h-0.2c-0.4,0-0.6-0.2-0.6-0.7v-2h-2.8v2
	c0,0.4-0.2,0.7-0.7,0.7H9.2z M15.4,68.6c0-0.5,0.3-0.7,0.8-0.7c0.5,0,0.8,0.3,0.8,0.7c0,0.4-0.3,0.7-0.8,0.7
	C15.7,69.3,15.4,69.1,15.4,68.6z M15.5,74.4v-3.6c0-0.5,0.3-0.7,0.6-0.7h0.2c0.4,0,0.6,0.2,0.6,0.7v3.6c0,0.5-0.3,0.7-0.6,0.7h-0.1
	C15.7,75,15.5,74.9,15.5,74.4z M20.9,70c1.3,0,1.8,0.9,1.8,2v2.4c0,0.5-0.3,0.7-0.6,0.7H22c-0.4,0-0.6-0.2-0.6-0.7v-2.1
	c0-0.7-0.3-1-0.9-1c-0.5,0-0.9,0.3-1.1,0.6v2.5c0,0.5-0.3,0.7-0.6,0.7h-0.1c-0.4,0-0.6-0.2-0.6-0.7v-4.1c0-0.1,0.2-0.2,0.5-0.2
	c0.4,0,0.8,0.2,0.8,0.8C19.7,70.4,20.2,70,20.9,70z M25.8,75.1c-1.1,0-1.6-0.6-1.6-1.7v-2.2h-0.2c-0.4,0-0.6-0.2-0.6-0.5v-0.1
	c0-0.3,0.2-0.5,0.6-0.5h0.3v-0.6c0-0.5,0.2-0.7,0.6-0.7H25c0.4,0,0.6,0.2,0.6,0.7v0.6h0.9c0.4,0,0.6,0.2,0.6,0.5v0.1
	c0,0.3-0.2,0.5-0.6,0.5h-0.9v2.1c0,0.5,0.1,0.7,0.5,0.7c0.3,0,0.5-0.1,0.6-0.3c0.1,0,0.4,0.2,0.4,0.5c0,0.2-0.1,0.4-0.2,0.5
	C26.6,75,26.2,75.1,25.8,75.1z M27.9,74.7c-0.3-0.2-0.4-0.4-0.4-0.7c0-0.4,0.4-0.6,0.4-0.6c0.3,0.4,0.9,0.7,1.6,0.7
	c0.5,0,0.9-0.2,0.9-0.5c0-0.4-0.4-0.4-1-0.6c-0.7-0.1-1.7-0.4-1.7-1.5c0-0.9,0.8-1.6,2-1.6c1,0,1.6,0.3,1.9,0.7
	c0.1,0.1,0.1,0.3,0.1,0.4c0,0.4-0.4,0.6-0.5,0.6c-0.3-0.4-0.9-0.7-1.4-0.7c-0.5,0-0.8,0.2-0.8,0.5c0,0.3,0.4,0.4,1,0.6
	c0.7,0.2,1.8,0.4,1.8,1.5c0,1-0.8,1.6-2.1,1.6C28.8,75.1,28.2,75,27.9,74.7z"/>
<g>
	<defs>
		<polygon id="SVGID_1_" points="1,1 2,1 1,2 		"/>
	</defs>
	<defs>
		<polygon id="SVGID_00000160185369731298198480000001147011401188519084_" points="-1,-1 -2,-1 -1,-2 		"/>
	</defs>
	<clipPath id="SVGID_00000151541087975703503880000013120373550030553244_">
		<use xlink:href="#SVGID_1_"  style="overflow:visible;"/>
	</clipPath>
	
		<clipPath id="SVGID_00000122722978252786530770000013539842145046721714_" style="clip-path:url(#SVGID_00000151541087975703503880000013120373550030553244_);">
		<use xlink:href="#SVGID_00000160185369731298198480000001147011401188519084_"  style="overflow:visible;"/>
	</clipPath>
	<path style="clip-path:url(#SVGID_00000122722978252786530770000013539842145046721714_);fill:#D8D8D8;" d="M0,1h40v-2H0V1z"/>
</g>
</svg>
