<?xml version="1.0" encoding="utf-8"?>
<!-- Generator: Adobe Illustrator 26.4.1, SVG Export Plug-In . SVG Version: 6.00 Build 0)  -->
<svg version="1.1" id="Layer_1" xmlns="http://www.w3.org/2000/svg" xmlns:xlink="http://www.w3.org/1999/xlink" x="0px" y="0px"
	 viewBox="0 0 60.4 48" style="enable-background:new 0 0 60.4 48;" xml:space="preserve">
<style type="text/css">
	.st0{fill:#859CFF;}
	.st1{fill:#FF7861;}
	.st2{fill:#D9D9D9;filter:url(#Adobe_OpacityMaskFilter);}
	.st3{mask:url(#mask0_163_1010_00000003823902750908010450000017159279125111042979_);}
	.st4{fill:#FCD116;}
	.st5{fill:#52AD65;}
	.st6{fill:#0038A8;}
	.st7{fill:#FC2B1E;}
</style>
<path class="st0" d="M17.9,36.7c2.5,2.1,5.6,0,6.8-1.3c-1,1.5-3.7,4.1-6.5,3.3c-2.7-0.8-5,0.4-5.8,1.1l-3.4-1.1
	C11,37.2,15.4,34.7,17.9,36.7z"/>
<path class="st1" d="M14.9,40.5c4.8,2.2,8.7-2.3,10.1-4.9c-1,2.7-4.1,8.1-8.7,7.9c-4.6-0.2-7.6,2.6-8.5,4.1L2,47.4
	C4.3,44.2,10.1,38.3,14.9,40.5z"/>
<defs>
	<filter id="Adobe_OpacityMaskFilter" filterUnits="userSpaceOnUse" x="4.9" y="3.2" width="51.6" height="51.6">
		<feColorMatrix  type="matrix" values="1 0 0 0 0  0 1 0 0 0  0 0 1 0 0  0 0 0 1 0"/>
	</filter>
</defs>
<mask maskUnits="userSpaceOnUse" x="4.9" y="3.2" width="51.6" height="51.6" id="mask0_163_1010_00000003823902750908010450000017159279125111042979_">
	<path class="st2" d="M23.2,35.1c7.2-12,6.9-26.3,5.9-31.9h27.4v27.2c-11.8-2.3-25.9,3.5-31.5,6.7v-1.8H23L23.2,35.1z"/>
</mask>
<g class="st3">
	<path class="st4" d="M22.5,3.2h28.6c2.9,0,5.3,2.4,5.3,5.3v28.6H22.5V3.2z"/>
	<path class="st5" d="M16.6,9h28.6c2.9,0,5.3,2.4,5.3,5.3V43H16.6V9z"/>
	<path class="st6" d="M10.7,14.9h28.6c2.9,0,5.3,2.4,5.3,5.3v28.6H10.7V14.9z"/>
	<path class="st7" d="M4.9,20.8h28.6c2.9,0,5.3,2.4,5.3,5.3v28.6H4.9V20.8z"/>
</g>
</svg>
