<svg width="34" height="34" viewBox="0 0 34 34" fill="none" xmlns="http://www.w3.org/2000/svg">
<path d="M32.0625 9.9375L29.1875 12.8125C28.9375 13.0625 28.4375 13.0625 28.125 12.8125L21.1875 5.875C20.9375 5.5625 20.9375 5.0625 21.1875 4.8125L24.0625 1.9375C25.25 0.75 27.1875 0.75 28.3125 1.9375L32.0625 5.6875C33.25 6.8125 33.25 8.75 32.0625 9.9375ZM18.75 7.25C19 7 19.5 7 19.8125 7.25L26.75 14.1875C27.0625 14.5 27.0625 15 26.75 15.25L10.3125 31.6875L2.75 33C1.6875 33.1875 0.8125 32.3125 1 31.25L2.3125 23.6875L18.75 7.25ZM6.5 27.5V24.5H4.1875L3.5 28.5625L5.4375 30.5L9.5 29.8125V27.5H6.5Z" fill="#D8D8D8"/>
</svg>
