<svg width="41" height="29" viewBox="0 0 41 29" fill="none" xmlns="http://www.w3.org/2000/svg">
<path d="M13.875 1.3125L22.875 25.3125C23.0417 25.8542 23.0208 26.3542 22.8125 26.8125C22.6042 27.3125 22.2292 27.6667 21.6875 27.875C21.1458 28.0417 20.6458 28.0208 20.1875 27.8125C19.6875 27.6042 19.3333 27.2292 19.125 26.6875L17 21H7L4.875 26.6875C4.66667 27.2292 4.3125 27.6042 3.8125 27.8125C3.35417 28.0208 2.85417 28.0417 2.3125 27.875C1.77083 27.6667 1.39583 27.3125 1.1875 26.8125C0.979167 26.3542 0.958333 25.8542 1.125 25.3125L10.125 1.3125C10.5 0.479167 11.125 0.0416667 12 0C12.875 0.0416667 13.5 0.479167 13.875 1.3125ZM15.5 17L12 7.6875L8.5 17H15.5ZM39 8C39.5833 8 40.0625 8.1875 40.4375 8.5625C40.8125 8.9375 41 9.41667 41 10V16V20V26C41 26.5833 40.8125 27.0625 40.4375 27.4375C40.0625 27.8125 39.5833 28 39 28C38.125 27.9583 37.5208 27.5625 37.1875 26.8125C35.9375 27.6042 34.5417 28 33 28C30.75 27.9583 28.8542 27.1875 27.3125 25.6875C25.8125 24.1458 25.0417 22.25 25 20V16C25.0417 13.75 25.8125 11.8542 27.3125 10.3125C28.8542 8.8125 30.75 8.04167 33 8C34.5417 8 35.9375 8.39583 37.1875 9.1875C37.5208 8.4375 38.125 8.04167 39 8ZM37 16C36.9583 14.875 36.5625 13.9375 35.8125 13.1875C35.0625 12.4375 34.125 12.0417 33 12C31.875 12.0417 30.9375 12.4375 30.1875 13.1875C29.4375 13.9375 29.0417 14.875 29 16V20C29.0417 21.125 29.4375 22.0625 30.1875 22.8125C30.9375 23.5625 31.875 23.9583 33 24C34.125 23.9583 35.0625 23.5625 35.8125 22.8125C36.5625 22.0625 36.9583 21.125 37 20V16Z" fill="#D8D8D8"/>
</svg>
