<?xml version="1.0" encoding="utf-8"?>
<!-- Generator: Adobe Illustrator 26.4.1, SVG Export Plug-In . SVG Version: 6.00 Build 0)  -->
<svg version="1.1" id="Layer_1" xmlns="http://www.w3.org/2000/svg" xmlns:xlink="http://www.w3.org/1999/xlink" x="0px" y="0px"
	 viewBox="0 0 371.3 69.8" style="enable-background:new 0 0 371.3 69.8;" xml:space="preserve">
<style type="text/css">
	.st0{fill:#C2DFDD;}
	.st1{fill:#024146;}
	.st2{fill:#33888D;}
	.st3{fill:#0A0A0A;}
</style>
<g>
	<g>
		<rect x="16.8" y="30.1" class="st0" width="13.1" height="13.1"/>
		<path class="st1" d="M29.9,30.1v13.1H16.8V30.1H29.9 M30.3,29.7H16.4v13.9h13.7L30.3,29.7L30.3,29.7L30.3,29.7z"/>
	</g>
	<g>
		<polygon class="st0" points="34.2,40 30.1,43.3 30.1,29.9 34.2,26.5 		"/>
		<path class="st1" d="M30.1,43.5L30.1,43.5c-0.1,0-0.2-0.1-0.2-0.2V29.9c0-0.1,0-0.1,0.1-0.1l4.1-3.4c0.1,0,0.1-0.1,0.2,0
			c0.1,0,0.1,0.1,0.1,0.2V40c0,0.1,0,0.1-0.1,0.2L30.1,43.5C30.2,43.5,30.2,43.5,30.1,43.5L30.1,43.5z M30.3,30v13l3.7-3V27L30.3,30
			L30.3,30z"/>
	</g>
	<g>
		<polygon class="st2" points="30.1,29.7 16.4,29.7 20.9,26.5 34.2,26.5 		"/>
		<path class="st1" d="M30.1,29.9H16.6c-0.1,0-0.2,0-0.2-0.1s0-0.1,0.1-0.2l4.3-3.2h0.1h13.3c0.1,0,0.2,0,0.2,0.1s0,0.1-0.1,0.2
			l-4.1,3.2C30.2,29.8,30.1,29.9,30.1,29.9z M17,29.6h13l3.6-3H20.9C21,26.6,17,29.6,17,29.6z"/>
	</g>
</g>
<g>
	<g>
		<rect x="41.2" y="30.1" class="st0" width="13.1" height="13.1"/>
		<path class="st1" d="M54.3,30.1v13.1H41.2V30.1H54.3 M54.7,29.7H40.8v13.9h13.7L54.7,29.7L54.7,29.7L54.7,29.7z"/>
	</g>
	<g>
		<polygon class="st0" points="58.6,40 54.5,43.3 54.5,29.9 58.6,26.5 		"/>
		<path class="st1" d="M54.5,43.5C54.5,43.5,54.4,43.5,54.5,43.5c-0.1,0-0.2-0.1-0.2-0.2V29.9c0-0.1,0-0.1,0.1-0.1l4.1-3.4
			c0.1,0,0.1-0.1,0.2,0c0.1,0,0.1,0.1,0.1,0.2V40c0,0.1,0,0.1-0.1,0.2L54.5,43.5L54.5,43.5L54.5,43.5z M54.7,30v13l3.7-3V27L54.7,30
			L54.7,30z"/>
	</g>
	<g>
		<polygon class="st2" points="54.5,29.7 40.8,29.7 45.3,26.5 58.6,26.5 		"/>
		<path class="st1" d="M54.5,29.9H41c-0.1,0-0.2,0-0.2-0.1s0-0.1,0.1-0.2l4.3-3.2h0.1h13.3c0.1,0,0.2,0,0.2,0.1s0,0.1-0.1,0.2
			L54.5,29.9C54.6,29.8,54.5,29.9,54.5,29.9z M41.3,29.6h13l3.6-3H45.2C45.4,26.6,41.3,29.6,41.3,29.6z"/>
	</g>
</g>
<g>
	<g>
		<rect x="65.5" y="30.1" class="st0" width="13.1" height="13.1"/>
		<path class="st1" d="M78.7,30.1v13.1H65.5V30.1H78.7 M79,29.7H65.2v13.9h13.7L79,29.7L79,29.7L79,29.7z"/>
	</g>
	<g>
		<polygon class="st0" points="83,40 78.9,43.3 78.9,29.9 83,26.5 		"/>
		<path class="st1" d="M78.9,43.5C78.9,43.5,78.8,43.5,78.9,43.5c-0.1,0-0.2-0.1-0.2-0.2V29.9c0-0.1,0-0.1,0.1-0.1l4.1-3.4
			c0.1,0,0.1-0.1,0.2,0c0.1,0,0.1,0.1,0.1,0.2V40c0,0.1,0,0.1-0.1,0.2L78.9,43.5L78.9,43.5L78.9,43.5z M79.1,30v13l3.7-3V27L79.1,30
			L79.1,30z"/>
	</g>
	<g>
		<polygon class="st2" points="78.8,29.7 65.1,29.7 69.7,26.5 83,26.5 		"/>
		<path class="st1" d="M78.8,29.9H65.3c-0.1,0-0.2,0-0.2-0.1s0-0.1,0.1-0.2l4.3-3.2h0.1h13.3c0.1,0,0.2,0,0.2,0.1s0,0.1-0.1,0.2
			l-4.1,3.2C78.9,29.8,78.9,29.9,78.8,29.9z M65.7,29.6h13l3.6-3H69.6C69.7,26.6,65.7,29.6,65.7,29.6z"/>
	</g>
</g>
<g>
	<g>
		<rect x="89.9" y="30.1" class="st0" width="13.1" height="13.1"/>
		<path class="st1" d="M103,30.1v13.1H89.9V30.1H103 M103.4,29.7H89.5v13.9h13.7L103.4,29.7L103.4,29.7L103.4,29.7z"/>
	</g>
	<g>
		<polygon class="st0" points="107.3,40 103.2,43.3 103.2,29.9 107.3,26.5 		"/>
		<path class="st1" d="M103.2,43.5L103.2,43.5c-0.1,0-0.2-0.1-0.2-0.2V29.9c0-0.1,0-0.1,0.1-0.1l4.1-3.4c0.1,0,0.1-0.1,0.2,0
			c0.1,0,0.1,0.1,0.1,0.2V40c0,0.1,0,0.1-0.1,0.2L103.2,43.5C103.3,43.5,103.3,43.5,103.2,43.5L103.2,43.5z M103.4,30v13l3.7-3V27
			L103.4,30L103.4,30z"/>
	</g>
	<g>
		<polygon class="st2" points="103.2,29.7 89.5,29.7 94,26.5 107.3,26.5 		"/>
		<path class="st1" d="M103.2,29.9H89.7c-0.1,0-0.2,0-0.2-0.1s0-0.1,0.1-0.2l4.3-3.2H94h13.3c0.1,0,0.2,0,0.2,0.1s0,0.1-0.1,0.2
			l-4.1,3.2C103.3,29.8,103.2,29.9,103.2,29.9z M90.1,29.6h13l3.6-3H94C94.1,26.6,90.1,29.6,90.1,29.6z"/>
	</g>
</g>
<g>
	<g>
		<rect x="114.3" y="30.1" class="st0" width="13.1" height="13.1"/>
		<path class="st1" d="M127.4,30.1v13.1h-13.1V30.1H127.4 M127.8,29.7h-13.9v13.9h13.7L127.8,29.7L127.8,29.7L127.8,29.7z"/>
	</g>
	<g>
		<polygon class="st0" points="131.7,40 127.6,43.3 127.6,29.9 131.7,26.5 		"/>
		<path class="st1" d="M127.6,43.5C127.6,43.5,127.5,43.5,127.6,43.5c-0.1,0-0.2-0.1-0.2-0.2V29.9c0-0.1,0-0.1,0.1-0.1l4.1-3.4
			c0.1,0,0.1-0.1,0.2,0c0.1,0,0.1,0.1,0.1,0.2V40c0,0.1,0,0.1-0.1,0.2l-4.1,3.3C127.7,43.5,127.6,43.5,127.6,43.5L127.6,43.5z
			 M127.8,30v13l3.7-3V27L127.8,30L127.8,30z"/>
	</g>
	<g>
		<polygon class="st2" points="127.5,29.7 113.9,29.7 118.4,26.5 131.7,26.5 		"/>
		<path class="st1" d="M127.5,29.9H114c-0.1,0-0.2,0-0.2-0.1s0-0.1,0.1-0.2l4.3-3.2h0.1h13.3c0.1,0,0.2,0,0.2,0.1s0,0.1-0.1,0.2
			L127.5,29.9C127.7,29.8,127.6,29.9,127.5,29.9z M114.4,29.6h13l3.6-3h-12.7C118.4,26.6,114.4,29.6,114.4,29.6z"/>
	</g>
</g>
<g>
	<g>
		<rect x="138.6" y="30.1" class="st0" width="13.1" height="13.1"/>
		<path class="st1" d="M151.7,30.1v13.1h-13.1V30.1H151.7 M152.1,29.7h-13.9v13.9h13.7L152.1,29.7L152.1,29.7L152.1,29.7z"/>
	</g>
	<g>
		<polygon class="st0" points="156,40 151.9,43.3 151.9,29.9 156,26.5 		"/>
		<path class="st1" d="M151.9,43.5L151.9,43.5c-0.1,0-0.2-0.1-0.2-0.2V29.9c0-0.1,0-0.1,0.1-0.1l4.1-3.4c0.1,0,0.1-0.1,0.2,0
			c0.1,0,0.1,0.1,0.1,0.2V40c0,0.1,0,0.1-0.1,0.2l-4.1,3.3C152,43.5,152,43.5,151.9,43.5L151.9,43.5z M152.1,30v13l3.7-3V27
			L152.1,30L152.1,30z"/>
	</g>
	<g>
		<polygon class="st2" points="151.9,29.7 138.2,29.7 142.7,26.5 156,26.5 		"/>
		<path class="st1" d="M151.9,29.9h-13.5c-0.1,0-0.2,0-0.2-0.1s0-0.1,0.1-0.2l4.3-3.2h0.1H156c0.1,0,0.2,0,0.2,0.1s0,0.1-0.1,0.2
			l-4.1,3.2C152,29.8,151.9,29.9,151.9,29.9z M138.8,29.6h13.1l3.6-3h-12.7C142.8,26.6,138.8,29.6,138.8,29.6z"/>
	</g>
</g>
<g>
	<g>
		<rect x="163" y="30.1" class="st0" width="13.1" height="13.1"/>
		<path class="st1" d="M176.1,30.1v13.1H163V30.1H176.1 M176.5,29.7h-13.9v13.9h13.7L176.5,29.7L176.5,29.7L176.5,29.7z"/>
	</g>
	<g>
		<polygon class="st0" points="180.4,40 176.3,43.3 176.3,29.9 180.4,26.5 		"/>
		<path class="st1" d="M176.3,43.5C176.3,43.5,176.2,43.5,176.3,43.5c-0.1,0-0.2-0.1-0.2-0.2V29.9c0-0.1,0-0.1,0.1-0.1l4.1-3.4
			c0.1,0,0.1-0.1,0.2,0c0.1,0,0.1,0.1,0.1,0.2V40c0,0.1,0,0.1-0.1,0.2l-4.1,3.3C176.4,43.5,176.3,43.5,176.3,43.5L176.3,43.5z
			 M176.5,30v13l3.7-3V27L176.5,30L176.5,30z"/>
	</g>
	<g>
		<polygon class="st2" points="176.3,29.7 162.6,29.7 167.1,26.5 180.4,26.5 		"/>
		<path class="st1" d="M176.3,29.9h-13.5c-0.1,0-0.2,0-0.2-0.1s0-0.1,0.1-0.2l4.3-3.2h0.1h13.3c0.1,0,0.2,0,0.2,0.1s0,0.1-0.1,0.2
			l-4.1,3.2C176.4,29.8,176.3,29.9,176.3,29.9z M163.1,29.6h13l3.6-3H167C167.2,26.6,163.1,29.6,163.1,29.6z"/>
	</g>
</g>
<g>
	<g>
		<rect x="187.3" y="30.1" class="st0" width="13.1" height="13.1"/>
		<path class="st1" d="M200.5,30.1v13.1h-13.1V30.1H200.5 M200.8,29.7H187v13.9h13.7L200.8,29.7L200.8,29.7L200.8,29.7z"/>
	</g>
	<g>
		<polygon class="st0" points="204.8,40 200.7,43.3 200.7,29.9 204.8,26.5 		"/>
		<path class="st1" d="M200.7,43.5C200.7,43.5,200.6,43.5,200.7,43.5c-0.1,0-0.2-0.1-0.2-0.2V29.9c0-0.1,0-0.1,0.1-0.1l4.1-3.4
			c0.1,0,0.1-0.1,0.2,0c0.1,0,0.1,0.1,0.1,0.2V40c0,0.1,0,0.1-0.1,0.2l-4.1,3.3H200.7L200.7,43.5z M200.9,30v13l3.7-3V27L200.9,30
			L200.9,30z"/>
	</g>
	<g>
		<polygon class="st2" points="200.6,29.7 186.9,29.7 191.5,26.5 204.8,26.5 		"/>
		<path class="st1" d="M200.6,29.9h-13.5c-0.1,0-0.2,0-0.2-0.1s0-0.1,0.1-0.2l4.3-3.2h0.1h13.3c0.1,0,0.2,0,0.2,0.1s0,0.1-0.1,0.2
			l-4.1,3.2C200.7,29.8,200.7,29.9,200.6,29.9z M187.5,29.6h13l3.6-3h-12.7C191.5,26.6,187.5,29.6,187.5,29.6z"/>
	</g>
</g>
<g>
	<g>
		<rect x="211.7" y="30.1" class="st0" width="13.1" height="13.1"/>
		<path class="st1" d="M224.8,30.1v13.1h-13.1V30.1H224.8 M225.2,29.7h-13.9v13.9H225L225.2,29.7L225.2,29.7L225.2,29.7z"/>
	</g>
	<g>
		<polygon class="st0" points="229.1,40 225,43.3 225,29.9 229.1,26.5 		"/>
		<path class="st1" d="M225,43.5L225,43.5c-0.1,0-0.2-0.1-0.2-0.2V29.9c0-0.1,0-0.1,0.1-0.1l4.1-3.4c0.1,0,0.1-0.1,0.2,0
			c0.1,0,0.1,0.1,0.1,0.2V40c0,0.1,0,0.1-0.1,0.2l-4.1,3.3C225.1,43.5,225.1,43.5,225,43.5L225,43.5z M225.2,30v13l3.7-3V27
			L225.2,30L225.2,30z"/>
	</g>
	<g>
		<polygon class="st2" points="225,29.7 211.3,29.7 215.8,26.5 229.1,26.5 		"/>
		<path class="st1" d="M225,29.9h-13.5c-0.1,0-0.2,0-0.2-0.1s0-0.1,0.1-0.2l4.3-3.2h0.1h13.3c0.1,0,0.2,0,0.2,0.1s0,0.1-0.1,0.2
			l-4.1,3.2C225.1,29.8,225,29.9,225,29.9z M211.9,29.6h13l3.6-3h-12.7C215.9,26.6,211.9,29.6,211.9,29.6z"/>
	</g>
</g>
<g>
	<g>
		<rect x="236.1" y="30.1" class="st0" width="13.1" height="13.1"/>
		<path class="st1" d="M249.2,30.1v13.1h-13.1V30.1H249.2 M249.6,29.7h-13.9v13.9h13.7L249.6,29.7L249.6,29.7L249.6,29.7z"/>
	</g>
	<g>
		<polygon class="st0" points="253.5,40 249.4,43.3 249.4,29.9 253.5,26.5 		"/>
		<path class="st1" d="M249.4,43.5C249.4,43.5,249.3,43.5,249.4,43.5c-0.1,0-0.2-0.1-0.2-0.2V29.9c0-0.1,0-0.1,0.1-0.1l4.1-3.4
			c0.1,0,0.1-0.1,0.2,0c0.1,0,0.1,0.1,0.1,0.2V40c0,0.1,0,0.1-0.1,0.2l-4.1,3.3H249.4L249.4,43.5z M249.6,30v13l3.7-3V27L249.6,30
			L249.6,30z"/>
	</g>
	<g>
		<polygon class="st2" points="249.3,29.7 235.7,29.7 240.2,26.5 253.5,26.5 		"/>
		<path class="st1" d="M249.3,29.9h-13.5c-0.1,0-0.2,0-0.2-0.1s0-0.1,0.1-0.2l4.3-3.2h0.1h13.3c0.1,0,0.2,0,0.2,0.1s0,0.1-0.1,0.2
			l-4.1,3.2C249.5,29.8,249.4,29.9,249.3,29.9z M236.2,29.6h13l3.6-3h-12.7C240.2,26.6,236.2,29.6,236.2,29.6z"/>
	</g>
</g>
<g>
	<g>
		<rect x="267.8" y="30.1" class="st0" width="13.1" height="13.1"/>
		<path class="st1" d="M280.9,30.1v13.1h-13.1V30.1H280.9 M281.2,29.7h-13.9v13.9H281L281.2,29.7L281.2,29.7L281.2,29.7z"/>
	</g>
	<g>
		<polygon class="st0" points="285.2,40 281.1,43.3 281.1,29.9 285.2,26.5 		"/>
		<path class="st1" d="M281.1,43.5C281.1,43.5,281,43.5,281.1,43.5c-0.1,0-0.2-0.1-0.2-0.2V29.9c0-0.1,0-0.1,0.1-0.1l4.1-3.4
			c0.1,0,0.1-0.1,0.2,0c0.1,0,0.1,0.1,0.1,0.2V40c0,0.1,0,0.1-0.1,0.2l-4.1,3.3H281.1L281.1,43.5z M281.3,30v13l3.7-3V27L281.3,30
			L281.3,30z"/>
	</g>
	<g>
		<polygon class="st2" points="281,29.7 267.3,29.7 271.9,26.5 285.2,26.5 		"/>
		<path class="st1" d="M281,29.9h-13.5c-0.1,0-0.2,0-0.2-0.1s0-0.1,0.1-0.2l4.3-3.2h0.1h13.3c0.1,0,0.2,0,0.2,0.1s0,0.1-0.1,0.2
			L281,29.9C281.2,29.8,281.1,29.9,281,29.9z M267.9,29.6h13l3.6-3h-12.7C271.9,26.6,267.9,29.6,267.9,29.6z"/>
	</g>
</g>
<g>
	<g>
		<rect x="292.1" y="30.1" class="st0" width="13.1" height="13.1"/>
		<path class="st1" d="M305.2,30.1v13.1h-13.1V30.1H305.2 M305.6,29.7h-13.9v13.9h13.7L305.6,29.7L305.6,29.7L305.6,29.7z"/>
	</g>
	<g>
		<polygon class="st0" points="309.5,40 305.4,43.3 305.4,29.9 309.5,26.5 		"/>
		<path class="st1" d="M305.4,43.5L305.4,43.5c-0.1,0-0.2-0.1-0.2-0.2V29.9c0-0.1,0-0.1,0.1-0.1l4.1-3.4c0.1,0,0.1-0.1,0.2,0
			c0.1,0,0.1,0.1,0.1,0.2V40c0,0.1,0,0.1-0.1,0.2l-4.1,3.3C305.5,43.5,305.5,43.5,305.4,43.5L305.4,43.5z M305.6,30v13l3.7-3V27
			L305.6,30L305.6,30z"/>
	</g>
	<g>
		<polygon class="st2" points="305.4,29.7 291.7,29.7 296.2,26.5 309.5,26.5 		"/>
		<path class="st1" d="M305.4,29.9h-13.5c-0.1,0-0.2,0-0.2-0.1s0-0.1,0.1-0.2l4.3-3.2h0.1h13.3c0.1,0,0.2,0,0.2,0.1s0,0.1-0.1,0.2
			L305.4,29.9C305.5,29.8,305.4,29.9,305.4,29.9z M292.3,29.6h13l3.6-3h-12.7C296.3,26.6,292.3,29.6,292.3,29.6z"/>
	</g>
</g>
<g>
	<g>
		<rect x="316.5" y="30.1" class="st0" width="13.1" height="13.1"/>
		<path class="st1" d="M329.6,30.1v13.1h-13.1V30.1H329.6 M330,29.7h-13.9v13.9h13.7L330,29.7L330,29.7L330,29.7z"/>
	</g>
	<g>
		<polygon class="st0" points="333.9,40 329.8,43.3 329.8,29.9 333.9,26.5 		"/>
		<path class="st1" d="M329.8,43.5C329.8,43.5,329.7,43.5,329.8,43.5c-0.1,0-0.2-0.1-0.2-0.2V29.9c0-0.1,0-0.1,0.1-0.1l4.1-3.4
			c0.1,0,0.1-0.1,0.2,0c0.1,0,0.1,0.1,0.1,0.2V40c0,0.1,0,0.1-0.1,0.2l-4.1,3.3H329.8L329.8,43.5z M330,30v13l3.7-3V27L330,30
			L330,30z"/>
	</g>
	<g>
		<polygon class="st2" points="329.8,29.7 316.1,29.7 320.6,26.5 333.9,26.5 		"/>
		<path class="st1" d="M329.8,29.9h-13.5c-0.1,0-0.2,0-0.2-0.1s0-0.1,0.1-0.2l4.3-3.2h0.1h13.3c0.1,0,0.2,0,0.2,0.1s0,0.1-0.1,0.2
			L329.8,29.9C329.9,29.8,329.8,29.9,329.8,29.9z M316.6,29.6h13l3.6-3h-12.7C320.6,26.6,316.6,29.6,316.6,29.6z"/>
	</g>
</g>
<g>
	<g>
		<rect x="340.8" y="30.1" class="st0" width="13.1" height="13.1"/>
		<path class="st1" d="M354,30.1v13.1h-13.1V30.1H354 M354.3,29.7h-13.9v13.9h13.7L354.3,29.7L354.3,29.7L354.3,29.7z"/>
	</g>
	<g>
		<polygon class="st0" points="358.3,40 354.2,43.3 354.2,29.9 358.3,26.5 		"/>
		<path class="st1" d="M354.2,43.5C354.2,43.5,354.1,43.5,354.2,43.5c-0.1,0-0.2-0.1-0.2-0.2V29.9c0-0.1,0-0.1,0.1-0.1l4.1-3.4
			c0.1,0,0.1-0.1,0.2,0c0.1,0,0.1,0.1,0.1,0.2V40c0,0.1,0,0.1-0.1,0.2l-4.1,3.3C354.3,43.5,354.2,43.5,354.2,43.5L354.2,43.5z
			 M354.4,30v13l3.7-3V27L354.4,30L354.4,30z"/>
	</g>
	<g>
		<polygon class="st2" points="354.1,29.7 340.4,29.7 344.9,26.5 358.3,26.5 		"/>
		<path class="st1" d="M354.1,29.9h-13.5c-0.1,0-0.2,0-0.2-0.1s0-0.1,0.1-0.2l4.3-3.2h0.1h13.3c0.1,0,0.2,0,0.2,0.1s0,0.1-0.1,0.2
			L354.1,29.9C354.2,29.8,354.2,29.9,354.1,29.9z M341,29.6h13l3.6-3h-12.7C345,26.6,341,29.6,341,29.6z"/>
	</g>
</g>
<path class="st3" d="M252.5,60.9H15.7c-4.6,0-8.4-3.8-8.4-8.4V17.3c0-4.6,3.8-8.4,8.4-8.4h236.8c4.6,0,8.4,3.8,8.4,8.4v35.1
	C260.9,57.1,257.2,60.9,252.5,60.9z M15.7,11c-3.5,0-6.4,2.9-6.4,6.4v35.1c0,3.5,2.9,6.4,6.4,6.4h236.8c3.5,0,6.4-2.9,6.4-6.4V17.3
	c0-3.5-2.9-6.4-6.4-6.4H15.7V11z"/>
</svg>
