<?xml version="1.0" encoding="utf-8"?>
<!-- Generator: Adobe Illustrator 26.4.1, SVG Export Plug-In . SVG Version: 6.00 Build 0)  -->
<svg version="1.1" id="Layer_1" xmlns="http://www.w3.org/2000/svg" xmlns:xlink="http://www.w3.org/1999/xlink" x="0px" y="0px"
	 viewBox="0 0 362.6 44.2" style="enable-background:new 0 0 362.6 44.2;" xml:space="preserve">
<style type="text/css">
	.st0{fill:#C2DFDD;}
	.st1{fill:#024146;}
	.st2{fill:#33888D;}
</style>
<g>
	<g>
		<rect x="11.2" y="17" class="st0" width="13.1" height="13.1"/>
		<path class="st1" d="M24.3,17v13.1H11.2V17H24.3 M24.7,16.7H10.8v13.9l13.7,0L24.7,16.7L24.7,16.7L24.7,16.7z"/>
	</g>
	<g>
		<polygon class="st0" points="28.6,27 24.5,30.3 24.5,16.9 28.6,13.5 		"/>
		<path class="st1" d="M24.5,30.5C24.5,30.5,24.4,30.5,24.5,30.5c-0.1-0.1-0.2-0.1-0.2-0.2V16.9c0-0.1,0-0.1,0.1-0.1l4.1-3.4
			c0.1-0.1,0.1-0.1,0.2,0c0.1,0,0.1,0.1,0.1,0.2V27c0,0.1,0,0.1-0.1,0.2l-4.1,3.3C24.6,30.5,24.5,30.5,24.5,30.5L24.5,30.5z
			 M24.7,17v12.9l3.7-3V14L24.7,17L24.7,17z"/>
	</g>
	<g>
		<polygon class="st2" points="24.5,16.7 10.8,16.7 15.3,13.5 28.6,13.5 		"/>
		<path class="st1" d="M24.5,16.9l-13.5,0c-0.1,0-0.2,0-0.2-0.1c0-0.1,0-0.1,0.1-0.2l4.3-3.2c0,0,0.1,0,0.1,0l13.3,0
			c0.1,0,0.2,0,0.2,0.1s0,0.1-0.1,0.2l-4.1,3.2C24.6,16.8,24.5,16.9,24.5,16.9z M11.3,16.6h13l3.6-3l-12.7,0
			C15.3,13.6,11.3,16.6,11.3,16.6z"/>
	</g>
</g>
<g>
	<g>
		<rect x="35.5" y="17" class="st0" width="13.1" height="13.1"/>
		<path class="st1" d="M48.7,17v13.1H35.5V17H48.7 M49,16.7H35.2v13.9l13.7,0L49,16.7L49,16.7L49,16.7z"/>
	</g>
	<g>
		<polygon class="st0" points="53,27 48.9,30.3 48.9,16.9 53,13.5 		"/>
		<path class="st1" d="M48.9,30.5C48.9,30.5,48.8,30.5,48.9,30.5c-0.1-0.1-0.2-0.1-0.2-0.2V16.9c0-0.1,0-0.1,0.1-0.1l4.1-3.4
			c0.1-0.1,0.1-0.1,0.2,0c0.1,0,0.1,0.1,0.1,0.2V27c0,0.1,0,0.1-0.1,0.2L49,30.5C49,30.5,48.9,30.5,48.9,30.5L48.9,30.5z M49.1,17
			v12.9l3.7-3V14L49.1,17L49.1,17z"/>
	</g>
	<g>
		<polygon class="st2" points="48.8,16.7 35.1,16.7 39.6,13.5 53,13.5 		"/>
		<path class="st1" d="M48.8,16.9l-13.5,0c-0.1,0-0.2,0-0.2-0.1c0-0.1,0-0.1,0.1-0.2l4.3-3.2c0,0,0.1,0,0.1,0l13.3,0
			c0.1,0,0.2,0,0.2,0.1s0,0.1-0.1,0.2l-4.1,3.2C48.9,16.8,48.9,16.9,48.8,16.9z M35.7,16.6h13l3.6-3l-12.7,0
			C39.7,13.6,35.7,16.6,35.7,16.6z"/>
	</g>
</g>
<g>
	<g>
		<rect x="59.9" y="17" class="st0" width="13.1" height="13.1"/>
		<path class="st1" d="M73,17v13.1H59.9V17H73 M73.4,16.7H59.5v13.9l13.7,0L73.4,16.7L73.4,16.7L73.4,16.7z"/>
	</g>
	<g>
		<polygon class="st0" points="77.3,27 73.2,30.3 73.2,16.9 77.3,13.5 		"/>
		<path class="st1" d="M73.2,30.5C73.2,30.5,73.2,30.5,73.2,30.5c-0.1-0.1-0.2-0.1-0.2-0.2V16.9c0-0.1,0-0.1,0.1-0.1l4.1-3.4
			c0.1-0.1,0.1-0.1,0.2,0c0.1,0,0.1,0.1,0.1,0.2V27c0,0.1,0,0.1-0.1,0.2l-4.1,3.3C73.3,30.5,73.2,30.5,73.2,30.5L73.2,30.5z
			 M73.4,17v12.9l3.7-3V14L73.4,17L73.4,17z"/>
	</g>
	<g>
		<polygon class="st2" points="73.2,16.7 59.5,16.7 64,13.5 77.3,13.5 		"/>
		<path class="st1" d="M73.2,16.9l-13.5,0c-0.1,0-0.2,0-0.2-0.1c0-0.1,0-0.1,0.1-0.2l4.3-3.2c0,0,0.1,0,0.1,0l13.3,0
			c0.1,0,0.2,0,0.2,0.1s0,0.1-0.1,0.2l-4.1,3.2C73.3,16.8,73.2,16.9,73.2,16.9z M60.1,16.6h13l3.6-3l-12.7,0
			C64.1,13.6,60.1,16.6,60.1,16.6z"/>
	</g>
</g>
<g>
	<g>
		<rect x="84.3" y="17" class="st0" width="13.1" height="13.1"/>
		<path class="st1" d="M97.4,17v13.1H84.3V17H97.4 M97.7,16.7H83.9v13.9l13.7,0L97.7,16.7L97.7,16.7L97.7,16.7z"/>
	</g>
	<g>
		<polygon class="st0" points="101.7,27 97.6,30.3 97.6,16.9 101.7,13.5 		"/>
		<path class="st1" d="M97.6,30.5C97.6,30.5,97.5,30.5,97.6,30.5c-0.1-0.1-0.2-0.1-0.2-0.2V16.9c0-0.1,0-0.1,0.1-0.1l4.1-3.4
			c0.1-0.1,0.1-0.1,0.2,0c0.1,0,0.1,0.1,0.1,0.2V27c0,0.1,0,0.1-0.1,0.2l-4.1,3.3C97.7,30.5,97.6,30.5,97.6,30.5L97.6,30.5z
			 M97.8,17v12.9l3.7-3V14L97.8,17L97.8,17z"/>
	</g>
	<g>
		<polygon class="st2" points="97.5,16.7 83.8,16.7 88.4,13.5 101.7,13.5 		"/>
		<path class="st1" d="M97.5,16.9l-13.5,0c-0.1,0-0.2,0-0.2-0.1c0-0.1,0-0.1,0.1-0.2l4.3-3.2c0,0,0.1,0,0.1,0l13.3,0
			c0.1,0,0.2,0,0.2,0.1s0,0.1-0.1,0.2l-4.1,3.2C97.7,16.8,97.6,16.9,97.5,16.9z M84.4,16.6h13l3.6-3l-12.7,0
			C88.4,13.6,84.4,16.6,84.4,16.6z"/>
	</g>
</g>
<g>
	<g>
		<rect x="108.6" y="17" class="st0" width="13.1" height="13.1"/>
		<path class="st1" d="M121.7,17v13.1h-13.1V17H121.7 M122.1,16.7h-13.9v13.9l13.7,0L122.1,16.7L122.1,16.7L122.1,16.7z"/>
	</g>
	<g>
		<polygon class="st0" points="126,27 121.9,30.3 121.9,16.9 126,13.5 		"/>
		<path class="st1" d="M121.9,30.5C121.9,30.5,121.9,30.5,121.9,30.5c-0.1-0.1-0.2-0.1-0.2-0.2V16.9c0-0.1,0-0.1,0.1-0.1l4.1-3.4
			c0.1-0.1,0.1-0.1,0.2,0c0.1,0,0.1,0.1,0.1,0.2V27c0,0.1,0,0.1-0.1,0.2l-4.1,3.3C122,30.5,122,30.5,121.9,30.5L121.9,30.5z
			 M122.1,17v12.9l3.7-3V14L122.1,17L122.1,17z"/>
	</g>
	<g>
		<polygon class="st2" points="121.9,16.7 108.2,16.7 112.7,13.5 126,13.5 		"/>
		<path class="st1" d="M121.9,16.9l-13.5,0c-0.1,0-0.2,0-0.2-0.1c0-0.1,0-0.1,0.1-0.2l4.3-3.2c0,0,0.1,0,0.1,0l13.3,0
			c0.1,0,0.2,0,0.2,0.1s0,0.1-0.1,0.2l-4.1,3.2C122,16.8,121.9,16.9,121.9,16.9z M108.8,16.6h13l3.6-3l-12.7,0
			C112.8,13.6,108.8,16.6,108.8,16.6z"/>
	</g>
</g>
<g>
	<g>
		<rect x="133" y="17" class="st0" width="13.1" height="13.1"/>
		<path class="st1" d="M146.1,17v13.1H133V17H146.1 M146.5,16.7h-13.9v13.9l13.7,0L146.5,16.7L146.5,16.7L146.5,16.7z"/>
	</g>
	<g>
		<polygon class="st0" points="150.4,27 146.3,30.3 146.3,16.9 150.4,13.5 		"/>
		<path class="st1" d="M146.3,30.5C146.3,30.5,146.2,30.5,146.3,30.5c-0.1-0.1-0.2-0.1-0.2-0.2V16.9c0-0.1,0-0.1,0.1-0.1l4.1-3.4
			c0.1-0.1,0.1-0.1,0.2,0c0.1,0,0.1,0.1,0.1,0.2V27c0,0.1,0,0.1-0.1,0.2l-4.1,3.3C146.4,30.5,146.3,30.5,146.3,30.5L146.3,30.5z
			 M146.5,17v12.9l3.7-3V14L146.5,17L146.5,17z"/>
	</g>
	<g>
		<polygon class="st2" points="146.3,16.7 132.6,16.7 137.1,13.5 150.4,13.5 		"/>
		<path class="st1" d="M146.3,16.9l-13.5,0c-0.1,0-0.2,0-0.2-0.1c0-0.1,0-0.1,0.1-0.2l4.3-3.2c0,0,0.1,0,0.1,0l13.3,0
			c0.1,0,0.2,0,0.2,0.1s0,0.1-0.1,0.2l-4.1,3.2C146.4,16.8,146.3,16.9,146.3,16.9z M133.1,16.6h13l3.6-3l-12.7,0
			C137.2,13.6,133.1,16.6,133.1,16.6z"/>
	</g>
</g>
<g>
	<g>
		<rect x="157.3" y="17" class="st0" width="13.1" height="13.1"/>
		<path class="st1" d="M170.5,17v13.1h-13.1V17H170.5 M170.8,16.7H157v13.9l13.7,0L170.8,16.7L170.8,16.7L170.8,16.7z"/>
	</g>
	<g>
		<polygon class="st0" points="174.8,27 170.7,30.3 170.7,16.9 174.8,13.5 		"/>
		<path class="st1" d="M170.7,30.5C170.7,30.5,170.6,30.5,170.7,30.5c-0.1-0.1-0.2-0.1-0.2-0.2V16.9c0-0.1,0-0.1,0.1-0.1l4.1-3.4
			c0.1-0.1,0.1-0.1,0.2,0c0.1,0,0.1,0.1,0.1,0.2V27c0,0.1,0,0.1-0.1,0.2l-4.1,3.3C170.8,30.5,170.7,30.5,170.7,30.5L170.7,30.5z
			 M170.9,17v12.9l3.7-3V14L170.9,17L170.9,17z"/>
	</g>
	<g>
		<polygon class="st2" points="170.6,16.7 156.9,16.7 161.4,13.5 174.8,13.5 		"/>
		<path class="st1" d="M170.6,16.9l-13.5,0c-0.1,0-0.2,0-0.2-0.1c0-0.1,0-0.1,0.1-0.2l4.3-3.2c0,0,0.1,0,0.1,0l13.3,0
			c0.1,0,0.2,0,0.2,0.1s0,0.1-0.1,0.2l-4.1,3.2C170.7,16.8,170.7,16.9,170.6,16.9z M157.5,16.6h13.1l3.6-3l-12.7,0
			C161.5,13.6,157.5,16.6,157.5,16.6z"/>
	</g>
</g>
<g>
	<g>
		<rect x="181.7" y="17" class="st0" width="13.1" height="13.1"/>
		<path class="st1" d="M194.8,17v13.1h-13.1V17H194.8 M195.2,16.7h-13.9v13.9l13.7,0L195.2,16.7L195.2,16.7L195.2,16.7z"/>
	</g>
	<g>
		<polygon class="st0" points="199.1,27 195,30.3 195,16.9 199.1,13.5 		"/>
		<path class="st1" d="M195,30.5C195,30.5,195,30.5,195,30.5c-0.1-0.1-0.2-0.1-0.2-0.2V16.9c0-0.1,0-0.1,0.1-0.1l4.1-3.4
			c0.1-0.1,0.1-0.1,0.2,0c0.1,0,0.1,0.1,0.1,0.2V27c0,0.1,0,0.1-0.1,0.2l-4.1,3.3C195.1,30.5,195,30.5,195,30.5L195,30.5z M195.2,17
			v12.9l3.7-3V14L195.2,17L195.2,17z"/>
	</g>
	<g>
		<polygon class="st2" points="195,16.7 181.3,16.7 185.8,13.5 199.1,13.5 		"/>
		<path class="st1" d="M195,16.9l-13.5,0c-0.1,0-0.2,0-0.2-0.1c0-0.1,0-0.1,0.1-0.2l4.3-3.2c0,0,0.1,0,0.1,0l13.3,0
			c0.1,0,0.2,0,0.2,0.1s0,0.1-0.1,0.2l-4.1,3.2C195.1,16.8,195,16.9,195,16.9z M181.9,16.6h13.1l3.6-3l-12.7,0
			C185.9,13.6,181.9,16.6,181.9,16.6z"/>
	</g>
</g>
<g>
	<g>
		<rect x="206.1" y="17" class="st0" width="13.1" height="13.1"/>
		<path class="st1" d="M219.2,17v13.1h-13.1V17H219.2 M219.5,16.7h-13.9v13.9l13.7,0L219.5,16.7L219.5,16.7L219.5,16.7z"/>
	</g>
	<g>
		<polygon class="st0" points="223.5,27 219.4,30.3 219.4,16.9 223.5,13.5 		"/>
		<path class="st1" d="M219.4,30.5C219.4,30.5,219.3,30.5,219.4,30.5c-0.1-0.1-0.2-0.1-0.2-0.2V16.9c0-0.1,0-0.1,0.1-0.1l4.1-3.4
			c0.1-0.1,0.1-0.1,0.2,0c0.1,0,0.1,0.1,0.1,0.2V27c0,0.1,0,0.1-0.1,0.2l-4.1,3.3C219.5,30.5,219.4,30.5,219.4,30.5L219.4,30.5z
			 M219.6,17v12.9l3.7-3V14L219.6,17L219.6,17z"/>
	</g>
	<g>
		<polygon class="st2" points="219.3,16.7 205.6,16.7 210.2,13.5 223.5,13.5 		"/>
		<path class="st1" d="M219.3,16.9l-13.5,0c-0.1,0-0.2,0-0.2-0.1c0-0.1,0-0.1,0.1-0.2l4.3-3.2c0,0,0.1,0,0.1,0l13.3,0
			c0.1,0,0.2,0,0.2,0.1s0,0.1-0.1,0.2l-4.1,3.2C219.5,16.8,219.4,16.9,219.3,16.9z M206.2,16.6h13.1l3.6-3l-12.7,0
			C210.2,13.6,206.2,16.6,206.2,16.6z"/>
	</g>
</g>
<g>
	<g>
		<rect x="230.4" y="17" class="st0" width="13.1" height="13.1"/>
		<path class="st1" d="M243.5,17v13.1h-13.1V17H243.5 M243.9,16.7H230v13.9l13.7,0L243.9,16.7L243.9,16.7L243.9,16.7z"/>
	</g>
	<g>
		<polygon class="st0" points="247.8,27 243.7,30.3 243.7,16.9 247.8,13.5 		"/>
		<path class="st1" d="M243.7,30.5C243.7,30.5,243.7,30.5,243.7,30.5c-0.1-0.1-0.2-0.1-0.2-0.2V16.9c0-0.1,0-0.1,0.1-0.1l4.1-3.4
			c0.1-0.1,0.1-0.1,0.2,0c0.1,0,0.1,0.1,0.1,0.2V27c0,0.1,0,0.1-0.1,0.2l-4.1,3.3C243.8,30.5,243.8,30.5,243.7,30.5L243.7,30.5z
			 M243.9,17v12.9l3.7-3V14L243.9,17L243.9,17z"/>
	</g>
	<g>
		<polygon class="st2" points="243.7,16.7 230,16.7 234.5,13.5 247.8,13.5 		"/>
		<path class="st1" d="M243.7,16.9l-13.5,0c-0.1,0-0.2,0-0.2-0.1c0-0.1,0-0.1,0.1-0.2l4.3-3.2c0,0,0.1,0,0.1,0l13.3,0
			c0.1,0,0.2,0,0.2,0.1s0,0.1-0.1,0.2l-4.1,3.2C243.8,16.8,243.7,16.9,243.7,16.9z M230.6,16.6h13.1l3.6-3l-12.7,0
			C234.6,13.6,230.6,16.6,230.6,16.6z"/>
	</g>
</g>
<g>
	<g>
		<rect x="254.8" y="17" class="st0" width="13.1" height="13.1"/>
		<path class="st1" d="M267.9,17v13.1h-13.1V17H267.9 M268.3,16.7h-13.9v13.9l13.7,0L268.3,16.7L268.3,16.7L268.3,16.7z"/>
	</g>
	<g>
		<polygon class="st0" points="272.2,27 268.1,30.3 268.1,16.9 272.2,13.5 		"/>
		<path class="st1" d="M268.1,30.5C268.1,30.5,268,30.5,268.1,30.5c-0.1-0.1-0.2-0.1-0.2-0.2V16.9c0-0.1,0-0.1,0.1-0.1l4.1-3.4
			c0.1-0.1,0.1-0.1,0.2,0c0.1,0,0.1,0.1,0.1,0.2V27c0,0.1,0,0.1-0.1,0.2l-4.1,3.3C268.2,30.5,268.1,30.5,268.1,30.5L268.1,30.5z
			 M268.3,17v12.9l3.7-3V14L268.3,17L268.3,17z"/>
	</g>
	<g>
		<polygon class="st2" points="268.1,16.7 254.4,16.7 258.9,13.5 272.2,13.5 		"/>
		<path class="st1" d="M268.1,16.9l-13.5,0c-0.1,0-0.2,0-0.2-0.1c0-0.1,0-0.1,0.1-0.2l4.3-3.2c0,0,0.1,0,0.1,0l13.3,0
			c0.1,0,0.2,0,0.2,0.1s0,0.1-0.1,0.2l-4.1,3.2C268.2,16.8,268.1,16.9,268.1,16.9z M254.9,16.6h13l3.6-3l-12.7,0
			C259,13.6,254.9,16.6,254.9,16.6z"/>
	</g>
</g>
<g>
	<g>
		<rect x="279.1" y="17" class="st0" width="13.1" height="13.1"/>
		<path class="st1" d="M292.3,17v13.1h-13.1V17H292.3 M292.6,16.7h-13.9v13.9l13.7,0L292.6,16.7L292.6,16.7L292.6,16.7z"/>
	</g>
	<g>
		<polygon class="st0" points="296.6,27 292.5,30.3 292.5,16.9 296.6,13.5 		"/>
		<path class="st1" d="M292.5,30.5C292.5,30.5,292.4,30.5,292.5,30.5c-0.1-0.1-0.2-0.1-0.2-0.2V16.9c0-0.1,0-0.1,0.1-0.1l4.1-3.4
			c0.1-0.1,0.1-0.1,0.2,0c0.1,0,0.1,0.1,0.1,0.2V27c0,0.1,0,0.1-0.1,0.2l-4.1,3.3C292.6,30.5,292.5,30.5,292.5,30.5L292.5,30.5z
			 M292.7,17v12.9l3.7-3V14L292.7,17L292.7,17z"/>
	</g>
	<g>
		<polygon class="st2" points="292.4,16.7 278.7,16.7 283.2,13.5 296.6,13.5 		"/>
		<path class="st1" d="M292.4,16.9l-13.5,0c-0.1,0-0.2,0-0.2-0.1c0-0.1,0-0.1,0.1-0.2l4.3-3.2c0,0,0.1,0,0.1,0l13.3,0
			c0.1,0,0.2,0,0.2,0.1s0,0.1-0.1,0.2l-4.1,3.2C292.5,16.8,292.5,16.9,292.4,16.9z M279.3,16.6h13l3.6-3l-12.7,0
			C283.3,13.6,279.3,16.6,279.3,16.6z"/>
	</g>
</g>
<g>
	<g>
		<rect x="303.5" y="17" class="st0" width="13.1" height="13.1"/>
		<path class="st1" d="M316.6,17v13.1h-13.1V17H316.6 M317,16.7h-13.9v13.9l13.7,0L317,16.7L317,16.7L317,16.7z"/>
	</g>
	<g>
		<polygon class="st0" points="320.9,27 316.8,30.3 316.8,16.9 320.9,13.5 		"/>
		<path class="st1" d="M316.8,30.5C316.8,30.5,316.8,30.5,316.8,30.5c-0.1-0.1-0.2-0.1-0.2-0.2V16.9c0-0.1,0-0.1,0.1-0.1l4.1-3.4
			c0.1-0.1,0.1-0.1,0.2,0c0.1,0,0.1,0.1,0.1,0.2V27c0,0.1,0,0.1-0.1,0.2l-4.1,3.3C316.9,30.5,316.8,30.5,316.8,30.5L316.8,30.5z
			 M317,17v12.9l3.7-3V14L317,17L317,17z"/>
	</g>
	<g>
		<polygon class="st2" points="316.8,16.7 303.1,16.7 307.6,13.5 320.9,13.5 		"/>
		<path class="st1" d="M316.8,16.9l-13.5,0c-0.1,0-0.2,0-0.2-0.1c0-0.1,0-0.1,0.1-0.2l4.3-3.2c0,0,0.1,0,0.1,0l13.3,0
			c0.1,0,0.2,0,0.2,0.1s0,0.1-0.1,0.2l-4.1,3.2C316.9,16.8,316.8,16.9,316.8,16.9z M303.7,16.6h13l3.6-3l-12.7,0
			C307.7,13.6,303.7,16.6,303.7,16.6z"/>
	</g>
</g>
<g>
	<g>
		<rect x="327.9" y="17" class="st0" width="13.1" height="13.1"/>
		<path class="st1" d="M341,17v13.1h-13.1V17H341 M341.3,16.7h-13.9v13.9l13.7,0L341.3,16.7L341.3,16.7L341.3,16.7z"/>
	</g>
	<g>
		<polygon class="st0" points="345.3,27 341.2,30.3 341.2,16.9 345.3,13.5 		"/>
		<path class="st1" d="M341.2,30.5C341.2,30.5,341.1,30.5,341.2,30.5c-0.1-0.1-0.2-0.1-0.2-0.2V16.9c0-0.1,0-0.1,0.1-0.1l4.1-3.4
			c0.1-0.1,0.1-0.1,0.2,0c0.1,0,0.1,0.1,0.1,0.2V27c0,0.1,0,0.1-0.1,0.2l-4.1,3.3C341.3,30.5,341.2,30.5,341.2,30.5L341.2,30.5z
			 M341.4,17v12.9l3.7-3V14L341.4,17L341.4,17z"/>
	</g>
	<g>
		<polygon class="st2" points="341.1,16.7 327.4,16.7 332,13.5 345.3,13.5 		"/>
		<path class="st1" d="M341.1,16.9l-13.5,0c-0.1,0-0.2,0-0.2-0.1c0-0.1,0-0.1,0.1-0.2l4.3-3.2c0,0,0.1,0,0.1,0l13.3,0
			c0.1,0,0.2,0,0.2,0.1s0,0.1-0.1,0.2l-4.1,3.2C341.3,16.8,341.2,16.9,341.1,16.9z M328,16.6h13l3.6-3l-12.7,0
			C332,13.6,328,16.6,328,16.6z"/>
	</g>
</g>
</svg>
