<?xml version="1.0" encoding="utf-8"?>
<!-- Generator: Adobe Illustrator 26.4.1, SVG Export Plug-In . SVG Version: 6.00 Build 0)  -->
<svg version="1.1" xmlns="http://www.w3.org/2000/svg" xmlns:xlink="http://www.w3.org/1999/xlink" x="0px" y="0px"
	 viewBox="0 0 371.3 69.8" style="enable-background:new 0 0 371.3 69.8;" xml:space="preserve">
<style type="text/css">
	.st0{fill:#C2DFDD;}
	.st1{fill:#024146;}
	.st2{fill:#33888D;}
	.st3{fill:#0A0A0A;}
</style>
<g id="Layer_1">
	<g>
		<g>
			<rect x="16.8" y="30.1" class="st0" width="13.1" height="13.1"/>
			<path class="st1" d="M29.9,30.1v13.1H16.8V30.1H29.9 M30.3,29.7H16.4v13.9l13.7,0L30.3,29.7L30.3,29.7L30.3,29.7z"/>
		</g>
		<g>
			<polygon class="st0" points="34.2,40 30.1,43.3 30.1,29.9 34.2,26.5 			"/>
			<path class="st1" d="M30.1,43.5C30.1,43.5,30.1,43.5,30.1,43.5c-0.1,0-0.2-0.1-0.2-0.2V29.9c0-0.1,0-0.1,0.1-0.1l4.1-3.4
				c0.1,0,0.1-0.1,0.2,0c0.1,0,0.1,0.1,0.1,0.2V40c0,0.1,0,0.1-0.1,0.2l-4.1,3.3C30.2,43.5,30.2,43.5,30.1,43.5L30.1,43.5z M30.3,30
				V43l3.7-3V27L30.3,30L30.3,30z"/>
		</g>
		<g>
			<polygon class="st2" points="30.1,29.7 16.4,29.7 20.9,26.5 34.2,26.5 			"/>
			<path class="st1" d="M30.1,29.9l-13.5,0c-0.1,0-0.2,0-0.2-0.1s0-0.1,0.1-0.2l4.3-3.2c0,0,0.1,0,0.1,0l13.3,0c0.1,0,0.2,0,0.2,0.1
				s0,0.1-0.1,0.2l-4.1,3.2C30.2,29.8,30.1,29.9,30.1,29.9z M17,29.6h13l3.6-3l-12.7,0C21,26.6,17,29.6,17,29.6z"/>
		</g>
	</g>
	<g>
		<g>
			<rect x="41.2" y="30.1" class="st0" width="13.1" height="13.1"/>
			<path class="st1" d="M54.3,30.1v13.1H41.2V30.1H54.3 M54.7,29.7H40.8v13.9l13.7,0L54.7,29.7L54.7,29.7L54.7,29.7z"/>
		</g>
		<g>
			<polygon class="st0" points="58.6,40 54.5,43.3 54.5,29.9 58.6,26.5 			"/>
			<path class="st1" d="M54.5,43.5C54.5,43.5,54.4,43.5,54.5,43.5c-0.1,0-0.2-0.1-0.2-0.2V29.9c0-0.1,0-0.1,0.1-0.1l4.1-3.4
				c0.1,0,0.1-0.1,0.2,0c0.1,0,0.1,0.1,0.1,0.2V40c0,0.1,0,0.1-0.1,0.2l-4.1,3.3C54.6,43.5,54.5,43.5,54.5,43.5L54.5,43.5z M54.7,30
				V43l3.7-3V27L54.7,30L54.7,30z"/>
		</g>
		<g>
			<polygon class="st2" points="54.5,29.7 40.8,29.7 45.3,26.5 58.6,26.5 			"/>
			<path class="st1" d="M54.5,29.9l-13.5,0c-0.1,0-0.2,0-0.2-0.1s0-0.1,0.1-0.2l4.3-3.2c0,0,0.1,0,0.1,0l13.3,0c0.1,0,0.2,0,0.2,0.1
				s0,0.1-0.1,0.2l-4.1,3.2C54.6,29.8,54.5,29.9,54.5,29.9z M41.3,29.6h13l3.6-3l-12.7,0C45.4,26.6,41.3,29.6,41.3,29.6z"/>
		</g>
	</g>
	<g>
		<g>
			<rect x="65.5" y="30.1" class="st0" width="13.1" height="13.1"/>
			<path class="st1" d="M78.7,30.1v13.1H65.5V30.1H78.7 M79,29.7H65.2v13.9l13.7,0L79,29.7L79,29.7L79,29.7z"/>
		</g>
		<g>
			<polygon class="st0" points="83,40 78.9,43.3 78.9,29.9 83,26.5 			"/>
			<path class="st1" d="M78.9,43.5C78.9,43.5,78.8,43.5,78.9,43.5c-0.1,0-0.2-0.1-0.2-0.2V29.9c0-0.1,0-0.1,0.1-0.1l4.1-3.4
				c0.1,0,0.1-0.1,0.2,0c0.1,0,0.1,0.1,0.1,0.2V40c0,0.1,0,0.1-0.1,0.2L79,43.5C79,43.5,78.9,43.5,78.9,43.5L78.9,43.5z M79.1,30V43
				l3.7-3V27L79.1,30L79.1,30z"/>
		</g>
		<g>
			<polygon class="st2" points="78.8,29.7 65.1,29.7 69.7,26.5 83,26.5 			"/>
			<path class="st1" d="M78.8,29.9l-13.5,0c-0.1,0-0.2,0-0.2-0.1s0-0.1,0.1-0.2l4.3-3.2c0,0,0.1,0,0.1,0l13.3,0c0.1,0,0.2,0,0.2,0.1
				s0,0.1-0.1,0.2l-4.1,3.2C78.9,29.8,78.9,29.9,78.8,29.9z M65.7,29.6h13l3.6-3l-12.7,0C69.7,26.6,65.7,29.6,65.7,29.6z"/>
		</g>
	</g>
	<g>
		<g>
			<rect x="89.9" y="30.1" class="st0" width="13.1" height="13.1"/>
			<path class="st1" d="M103,30.1v13.1H89.9V30.1H103 M103.4,29.7H89.5v13.9l13.7,0L103.4,29.7L103.4,29.7L103.4,29.7z"/>
		</g>
		<g>
			<polygon class="st0" points="107.3,40 103.2,43.3 103.2,29.9 107.3,26.5 			"/>
			<path class="st1" d="M103.2,43.5C103.2,43.5,103.2,43.5,103.2,43.5c-0.1,0-0.2-0.1-0.2-0.2V29.9c0-0.1,0-0.1,0.1-0.1l4.1-3.4
				c0.1,0,0.1-0.1,0.2,0c0.1,0,0.1,0.1,0.1,0.2V40c0,0.1,0,0.1-0.1,0.2l-4.1,3.3C103.3,43.5,103.3,43.5,103.2,43.5L103.2,43.5z
				 M103.4,30V43l3.7-3V27L103.4,30L103.4,30z"/>
		</g>
		<g>
			<polygon class="st2" points="103.2,29.7 89.5,29.7 94,26.5 107.3,26.5 			"/>
			<path class="st1" d="M103.2,29.9l-13.5,0c-0.1,0-0.2,0-0.2-0.1s0-0.1,0.1-0.2l4.3-3.2c0,0,0.1,0,0.1,0l13.3,0
				c0.1,0,0.2,0,0.2,0.1s0,0.1-0.1,0.2l-4.1,3.2C103.3,29.8,103.2,29.9,103.2,29.9z M90.1,29.6h13l3.6-3l-12.7,0
				C94.1,26.6,90.1,29.6,90.1,29.6z"/>
		</g>
	</g>
	<g>
		<g>
			<rect x="114.3" y="30.1" class="st0" width="13.1" height="13.1"/>
			<path class="st1" d="M127.4,30.1v13.1h-13.1V30.1H127.4 M127.8,29.7h-13.9v13.9l13.7,0L127.8,29.7L127.8,29.7L127.8,29.7z"/>
		</g>
		<g>
			<polygon class="st0" points="131.7,40 127.6,43.3 127.6,29.9 131.7,26.5 			"/>
			<path class="st1" d="M127.6,43.5C127.6,43.5,127.5,43.5,127.6,43.5c-0.1,0-0.2-0.1-0.2-0.2V29.9c0-0.1,0-0.1,0.1-0.1l4.1-3.4
				c0.1,0,0.1-0.1,0.2,0c0.1,0,0.1,0.1,0.1,0.2V40c0,0.1,0,0.1-0.1,0.2l-4.1,3.3C127.7,43.5,127.6,43.5,127.6,43.5L127.6,43.5z
				 M127.8,30V43l3.7-3V27L127.8,30L127.8,30z"/>
		</g>
		<g>
			<polygon class="st2" points="127.5,29.7 113.9,29.7 118.4,26.5 131.7,26.5 			"/>
			<path class="st1" d="M127.5,29.9l-13.5,0c-0.1,0-0.2,0-0.2-0.1s0-0.1,0.1-0.2l4.3-3.2c0,0,0.1,0,0.1,0l13.3,0
				c0.1,0,0.2,0,0.2,0.1s0,0.1-0.1,0.2l-4.1,3.2C127.7,29.8,127.6,29.9,127.5,29.9z M114.4,29.6h13l3.6-3l-12.7,0
				C118.4,26.6,114.4,29.6,114.4,29.6z"/>
		</g>
	</g>
	<g>
		<g>
			<rect x="138.6" y="30.1" class="st0" width="13.1" height="13.1"/>
			<path class="st1" d="M151.7,30.1v13.1h-13.1V30.1H151.7 M152.1,29.7h-13.9v13.9l13.7,0L152.1,29.7L152.1,29.7L152.1,29.7z"/>
		</g>
		<g>
			<polygon class="st0" points="156,40 151.9,43.3 151.9,29.9 156,26.5 			"/>
			<path class="st1" d="M151.9,43.5C151.9,43.5,151.9,43.5,151.9,43.5c-0.1,0-0.2-0.1-0.2-0.2V29.9c0-0.1,0-0.1,0.1-0.1l4.1-3.4
				c0.1,0,0.1-0.1,0.2,0c0.1,0,0.1,0.1,0.1,0.2V40c0,0.1,0,0.1-0.1,0.2l-4.1,3.3C152,43.5,152,43.5,151.9,43.5L151.9,43.5z
				 M152.1,30V43l3.7-3V27L152.1,30L152.1,30z"/>
		</g>
		<g>
			<polygon class="st2" points="151.9,29.7 138.2,29.7 142.7,26.5 156,26.5 			"/>
			<path class="st1" d="M151.9,29.9l-13.5,0c-0.1,0-0.2,0-0.2-0.1s0-0.1,0.1-0.2l4.3-3.2c0,0,0.1,0,0.1,0l13.3,0
				c0.1,0,0.2,0,0.2,0.1s0,0.1-0.1,0.2l-4.1,3.2C152,29.8,151.9,29.9,151.9,29.9z M138.8,29.6h13.1l3.6-3l-12.7,0
				C142.8,26.6,138.8,29.6,138.8,29.6z"/>
		</g>
	</g>
	<g>
		<g>
			<rect x="163" y="30.1" class="st0" width="13.1" height="13.1"/>
			<path class="st1" d="M176.1,30.1v13.1H163V30.1H176.1 M176.5,29.7h-13.9v13.9l13.7,0L176.5,29.7L176.5,29.7L176.5,29.7z"/>
		</g>
		<g>
			<polygon class="st0" points="180.4,40 176.3,43.3 176.3,29.9 180.4,26.5 			"/>
			<path class="st1" d="M176.3,43.5C176.3,43.5,176.2,43.5,176.3,43.5c-0.1,0-0.2-0.1-0.2-0.2V29.9c0-0.1,0-0.1,0.1-0.1l4.1-3.4
				c0.1,0,0.1-0.1,0.2,0c0.1,0,0.1,0.1,0.1,0.2V40c0,0.1,0,0.1-0.1,0.2l-4.1,3.3C176.4,43.5,176.3,43.5,176.3,43.5L176.3,43.5z
				 M176.5,30V43l3.7-3V27L176.5,30L176.5,30z"/>
		</g>
		<g>
			<polygon class="st2" points="176.3,29.7 162.6,29.7 167.1,26.5 180.4,26.5 			"/>
			<path class="st1" d="M176.3,29.9l-13.5,0c-0.1,0-0.2,0-0.2-0.1s0-0.1,0.1-0.2l4.3-3.2c0,0,0.1,0,0.1,0l13.3,0
				c0.1,0,0.2,0,0.2,0.1s0,0.1-0.1,0.2l-4.1,3.2C176.4,29.8,176.3,29.9,176.3,29.9z M163.1,29.6h13l3.6-3l-12.7,0
				C167.2,26.6,163.1,29.6,163.1,29.6z"/>
		</g>
	</g>
	<g>
		<g>
			<rect x="187.3" y="30.1" class="st0" width="13.1" height="13.1"/>
			<path class="st1" d="M200.5,30.1v13.1h-13.1V30.1H200.5 M200.8,29.7H187v13.9l13.7,0L200.8,29.7L200.8,29.7L200.8,29.7z"/>
		</g>
		<g>
			<polygon class="st0" points="204.8,40 200.7,43.3 200.7,29.9 204.8,26.5 			"/>
			<path class="st1" d="M200.7,43.5C200.7,43.5,200.6,43.5,200.7,43.5c-0.1,0-0.2-0.1-0.2-0.2V29.9c0-0.1,0-0.1,0.1-0.1l4.1-3.4
				c0.1,0,0.1-0.1,0.2,0c0.1,0,0.1,0.1,0.1,0.2V40c0,0.1,0,0.1-0.1,0.2l-4.1,3.3C200.8,43.5,200.7,43.5,200.7,43.5L200.7,43.5z
				 M200.9,30V43l3.7-3V27L200.9,30L200.9,30z"/>
		</g>
		<g>
			<polygon class="st2" points="200.6,29.7 186.9,29.7 191.5,26.5 204.8,26.5 			"/>
			<path class="st1" d="M200.6,29.9l-13.5,0c-0.1,0-0.2,0-0.2-0.1s0-0.1,0.1-0.2l4.3-3.2c0,0,0.1,0,0.1,0l13.3,0
				c0.1,0,0.2,0,0.2,0.1s0,0.1-0.1,0.2l-4.1,3.2C200.7,29.8,200.7,29.9,200.6,29.9z M187.5,29.6h13l3.6-3l-12.7,0
				C191.5,26.6,187.5,29.6,187.5,29.6z"/>
		</g>
	</g>
	<g>
		<g>
			<rect x="211.7" y="30.1" class="st0" width="13.1" height="13.1"/>
			<path class="st1" d="M224.8,30.1v13.1h-13.1V30.1H224.8 M225.2,29.7h-13.9v13.9l13.7,0L225.2,29.7L225.2,29.7L225.2,29.7z"/>
		</g>
		<g>
			<polygon class="st0" points="229.1,40 225,43.3 225,29.9 229.1,26.5 			"/>
			<path class="st1" d="M225,43.5C225,43.5,225,43.5,225,43.5c-0.1,0-0.2-0.1-0.2-0.2V29.9c0-0.1,0-0.1,0.1-0.1l4.1-3.4
				c0.1,0,0.1-0.1,0.2,0c0.1,0,0.1,0.1,0.1,0.2V40c0,0.1,0,0.1-0.1,0.2l-4.1,3.3C225.1,43.5,225.1,43.5,225,43.5L225,43.5z
				 M225.2,30V43l3.7-3V27L225.2,30L225.2,30z"/>
		</g>
		<g>
			<polygon class="st2" points="225,29.7 211.3,29.7 215.8,26.5 229.1,26.5 			"/>
			<path class="st1" d="M225,29.9l-13.5,0c-0.1,0-0.2,0-0.2-0.1s0-0.1,0.1-0.2l4.3-3.2c0,0,0.1,0,0.1,0l13.3,0c0.1,0,0.2,0,0.2,0.1
				s0,0.1-0.1,0.2l-4.1,3.2C225.1,29.8,225,29.9,225,29.9z M211.9,29.6h13l3.6-3l-12.7,0C215.9,26.6,211.9,29.6,211.9,29.6z"/>
		</g>
	</g>
	<g>
		<g>
			<rect x="236.1" y="30.1" class="st0" width="13.1" height="13.1"/>
			<path class="st1" d="M249.2,30.1v13.1h-13.1V30.1H249.2 M249.6,29.7h-13.9v13.9l13.7,0L249.6,29.7L249.6,29.7L249.6,29.7z"/>
		</g>
		<g>
			<polygon class="st0" points="253.5,40 249.4,43.3 249.4,29.9 253.5,26.5 			"/>
			<path class="st1" d="M249.4,43.5C249.4,43.5,249.3,43.5,249.4,43.5c-0.1,0-0.2-0.1-0.2-0.2V29.9c0-0.1,0-0.1,0.1-0.1l4.1-3.4
				c0.1,0,0.1-0.1,0.2,0c0.1,0,0.1,0.1,0.1,0.2V40c0,0.1,0,0.1-0.1,0.2l-4.1,3.3C249.5,43.5,249.4,43.5,249.4,43.5L249.4,43.5z
				 M249.6,30V43l3.7-3V27L249.6,30L249.6,30z"/>
		</g>
		<g>
			<polygon class="st2" points="249.3,29.7 235.7,29.7 240.2,26.5 253.5,26.5 			"/>
			<path class="st1" d="M249.3,29.9l-13.5,0c-0.1,0-0.2,0-0.2-0.1s0-0.1,0.1-0.2l4.3-3.2c0,0,0.1,0,0.1,0l13.3,0
				c0.1,0,0.2,0,0.2,0.1s0,0.1-0.1,0.2l-4.1,3.2C249.5,29.8,249.4,29.9,249.3,29.9z M236.2,29.6h13l3.6-3l-12.7,0
				C240.2,26.6,236.2,29.6,236.2,29.6z"/>
		</g>
	</g>
	<g>
		<g>
			<rect x="259.3" y="30.1" class="st0" width="13.1" height="13.1"/>
			<path class="st1" d="M272.5,30.1v13.1h-13.1V30.1H272.5 M272.8,29.7H259v13.9l13.7,0L272.8,29.7L272.8,29.7L272.8,29.7z"/>
		</g>
		<g>
			<polygon class="st0" points="276.8,40 272.7,43.3 272.7,29.9 276.8,26.5 			"/>
			<path class="st1" d="M272.7,43.5C272.7,43.5,272.6,43.5,272.7,43.5c-0.1,0-0.2-0.1-0.2-0.2V29.9c0-0.1,0-0.1,0.1-0.1l4.1-3.4
				c0.1,0,0.1-0.1,0.2,0c0.1,0,0.1,0.1,0.1,0.2V40c0,0.1,0,0.1-0.1,0.2l-4.1,3.3C272.8,43.5,272.7,43.5,272.7,43.5L272.7,43.5z
				 M272.9,30V43l3.7-3V27L272.9,30L272.9,30z"/>
		</g>
		<g>
			<polygon class="st2" points="272.6,29.7 258.9,29.7 263.4,26.5 276.8,26.5 			"/>
			<path class="st1" d="M272.6,29.9l-13.5,0c-0.1,0-0.2,0-0.2-0.1s0-0.1,0.1-0.2l4.3-3.2c0,0,0.1,0,0.1,0l13.3,0
				c0.1,0,0.2,0,0.2,0.1s0,0.1-0.1,0.2l-4.1,3.2C272.7,29.8,272.7,29.9,272.6,29.9z M259.5,29.6h13l3.6-3l-12.7,0
				C263.5,26.6,259.5,29.6,259.5,29.6z"/>
		</g>
	</g>
	<g>
		<g>
			<rect x="283.7" y="30.1" class="st0" width="13.1" height="13.1"/>
			<path class="st1" d="M296.8,30.1v13.1h-13.1V30.1H296.8 M297.2,29.7h-13.9v13.9l13.7,0L297.2,29.7L297.2,29.7L297.2,29.7z"/>
		</g>
		<g>
			<polygon class="st0" points="301.1,40 297,43.3 297,29.9 301.1,26.5 			"/>
			<path class="st1" d="M297,43.5C297,43.5,297,43.5,297,43.5c-0.1,0-0.2-0.1-0.2-0.2V29.9c0-0.1,0-0.1,0.1-0.1l4.1-3.4
				c0.1,0,0.1-0.1,0.2,0c0.1,0,0.1,0.1,0.1,0.2V40c0,0.1,0,0.1-0.1,0.2l-4.1,3.3C297.1,43.5,297,43.5,297,43.5L297,43.5z M297.2,30
				V43l3.7-3V27L297.2,30L297.2,30z"/>
		</g>
		<g>
			<polygon class="st2" points="297,29.7 283.3,29.7 287.8,26.5 301.1,26.5 			"/>
			<path class="st1" d="M297,29.9l-13.5,0c-0.1,0-0.2,0-0.2-0.1s0-0.1,0.1-0.2l4.3-3.2c0,0,0.1,0,0.1,0l13.3,0c0.1,0,0.2,0,0.2,0.1
				s0,0.1-0.1,0.2l-4.1,3.2C297.1,29.8,297,29.9,297,29.9z M283.9,29.6h13l3.6-3l-12.7,0C287.9,26.6,283.9,29.6,283.9,29.6z"/>
		</g>
	</g>
	<g>
		<g>
			<rect x="318.2" y="30.1" class="st0" width="13.1" height="13.1"/>
			<path class="st1" d="M331.3,30.1v13.1h-13.1V30.1H331.3 M331.7,29.7h-13.9v13.9l13.7,0L331.7,29.7L331.7,29.7L331.7,29.7z"/>
		</g>
		<g>
			<polygon class="st0" points="335.6,40 331.5,43.3 331.5,29.9 335.6,26.5 			"/>
			<path class="st1" d="M331.5,43.5C331.5,43.5,331.4,43.5,331.5,43.5c-0.1,0-0.2-0.1-0.2-0.2V29.9c0-0.1,0-0.1,0.1-0.1l4.1-3.4
				c0.1,0,0.1-0.1,0.2,0c0.1,0,0.1,0.1,0.1,0.2V40c0,0.1,0,0.1-0.1,0.2l-4.1,3.3C331.6,43.5,331.5,43.5,331.5,43.5L331.5,43.5z
				 M331.7,30V43l3.7-3V27L331.7,30L331.7,30z"/>
		</g>
		<g>
			<polygon class="st2" points="331.5,29.7 317.8,29.7 322.3,26.5 335.6,26.5 			"/>
			<path class="st1" d="M331.5,29.9l-13.5,0c-0.1,0-0.2,0-0.2-0.1s0-0.1,0.1-0.2l4.3-3.2c0,0,0.1,0,0.1,0l13.3,0
				c0.1,0,0.2,0,0.2,0.1s0,0.1-0.1,0.2l-4.1,3.2C331.6,29.8,331.5,29.9,331.5,29.9z M318.3,29.6h13l3.6-3l-12.7,0
				C322.4,26.6,318.3,29.6,318.3,29.6z"/>
		</g>
	</g>
	<g>
		<g>
			<rect x="342.5" y="30.1" class="st0" width="13.1" height="13.1"/>
			<path class="st1" d="M355.7,30.1v13.1h-13.1V30.1H355.7 M356,29.7h-13.9v13.9l13.7,0L356,29.7L356,29.7L356,29.7z"/>
		</g>
		<g>
			<polygon class="st0" points="360,40 355.9,43.3 355.9,29.9 360,26.5 			"/>
			<path class="st1" d="M355.9,43.5C355.9,43.5,355.8,43.5,355.9,43.5c-0.1,0-0.2-0.1-0.2-0.2V29.9c0-0.1,0-0.1,0.1-0.1l4.1-3.4
				c0.1,0,0.1-0.1,0.2,0c0.1,0,0.1,0.1,0.1,0.2V40c0,0.1,0,0.1-0.1,0.2l-4.1,3.3C356,43.5,355.9,43.5,355.9,43.5L355.9,43.5z
				 M356.1,30V43l3.7-3V27L356.1,30L356.1,30z"/>
		</g>
		<g>
			<polygon class="st2" points="355.8,29.7 342.1,29.7 346.7,26.5 360,26.5 			"/>
			<path class="st1" d="M355.8,29.9l-13.5,0c-0.1,0-0.2,0-0.2-0.1s0-0.1,0.1-0.2l4.3-3.2c0,0,0.1,0,0.1,0l13.3,0
				c0.1,0,0.2,0,0.2,0.1s0,0.1-0.1,0.2l-4.1,3.2C355.9,29.8,355.9,29.9,355.8,29.9z M342.7,29.6h13.1l3.6-3l-12.7,0
				C346.7,26.6,342.7,29.6,342.7,29.6z"/>
		</g>
	</g>
</g>
<g id="Layer_2">
	<path class="st3" d="M301.3,60.9H15.7c-4.6,0-8.4-3.8-8.4-8.4V17.3c0-4.6,3.8-8.4,8.4-8.4h285.6c4.6,0,8.4,3.8,8.4,8.4v35.1
		C309.7,57.1,305.9,60.9,301.3,60.9z M15.7,11c-3.5,0-6.4,2.9-6.4,6.4v35.1c0,3.5,2.9,6.4,6.4,6.4h285.6c3.5,0,6.4-2.9,6.4-6.4V17.3
		c0-3.5-2.9-6.4-6.4-6.4H15.7z"/>
</g>
</svg>
