<svg width="109" height="138" viewBox="0 0 109 138" fill="none" xmlns="http://www.w3.org/2000/svg">
<path d="M50.3515 121.286C51.0953 126.475 47.1377 127.901 42.4896 128.217C35.9141 128.664 23.1346 121.611 19.7458 116.889C16.6357 112.556 16.3757 108.015 19.7633 105.62" fill="white"/>
<path d="M50.3515 121.286C51.0953 126.475 47.1377 127.901 42.4896 128.217C35.9141 128.664 23.1346 121.611 19.7458 116.889C16.6357 112.556 16.3757 108.015 19.7633 105.62" stroke="black" stroke-width="2.96892" stroke-linecap="round" stroke-linejoin="round"/>
<path d="M17.4756 71.5273C12.3915 81.8211 15.2288 102.606 25.3278 111.473C30.5424 116.051 43.9327 122.488 50.2675 121.001C61.114 118.456 68.6346 112.41 74.6598 103.537C76.7957 100.391 78.9651 96.6433 79.8169 93.2581C83.4405 78.8557 75.531 75.4856 72.6688 73.6954C73.3437 67.0475 68.458 59.9337 58.7098 57.8738C61.7297 50.6216 63.8531 46.2673 67.3728 39.686C73.2601 28.6776 54.5548 17.6309 49.5711 32.0629C46.1774 41.891 42.2087 49.3273 36.6805 57.5571C34.0635 57.2632 22.7832 60.7797 17.4754 71.5264L17.4756 71.5273Z" fill="white" stroke="black" stroke-width="2.96892" stroke-linecap="round" stroke-linejoin="round"/>
<path d="M57.5168 56.8817C54.5902 63.7818 53.0943 69.4803 54.8693 76.5045C55.073 71.3639 58.2579 62.3181 60.7655 56.813L57.5168 56.8817Z" fill="black"/>
<path d="M74.2174 72.9209L71.23 72.8248C70.9234 77.1276 70.5486 81.9485 71.6468 85.0745C71.6695 83.013 73.694 76.4266 74.2174 72.9209Z" fill="black"/>
<path d="M45.9294 113.353C51.4248 108.008 52.1849 106.117 54.4243 103.148" stroke="black" stroke-width="2.96892" stroke-linecap="round" stroke-linejoin="round"/>
<path d="M39.423 111.126C43.8589 103.9 45.3107 100.007 47.8272 94.9252" stroke="black" stroke-width="2.96892" stroke-linecap="round" stroke-linejoin="round"/>
<path d="M31.7389 108.237C34.0983 102.901 34.7152 100.165 35.8721 96.6232" stroke="black" stroke-width="2.96892" stroke-linecap="round" stroke-linejoin="round"/>
<path d="M35.9066 56.1226C31.2863 63.7605 22.6345 75.6354 21.6886 80.4234C23.632 78.0824 36.9738 60.218 39.2402 56.3637L35.9066 56.1226Z" fill="black"/>
<path d="M53.9395 22.028C58.7558 17.5693 70.8912 21.2887 72.1666 29.3434C75.1467 18.0266 56.7494 13.4231 53.9395 22.028Z" fill="black"/>
<path d="M53.7559 17.0891C62.1787 9.93527 74.9657 17.164 75.7928 25.9335C79.2702 11.5198 57.5305 5.0938 53.7559 17.0891Z" fill="black"/>
</svg>
